<?xml version="1.0" encoding="UTF-8" standalone="no"?>
<svg
   xmlns:dc="http://purl.org/dc/elements/1.1/"
   xmlns:cc="http://creativecommons.org/ns#"
   xmlns:rdf="http://www.w3.org/1999/02/22-rdf-syntax-ns#"
   xmlns:svg="http://www.w3.org/2000/svg"
   xmlns="http://www.w3.org/2000/svg"
   xmlns:sodipodi="http://sodipodi.sourceforge.net/DTD/sodipodi-0.dtd"
   xmlns:inkscape="http://www.inkscape.org/namespaces/inkscape"
   inkscape:version="0.92.3 (2405546, 2018-03-11)"
   sodipodi:docname="app-printer.svg"
   id="svg20"
   version="1"
   height="512"
   width="512">
  <metadata
     id="metadata26">
    <rdf:RDF>
      <cc:Work
         rdf:about="">
        <dc:format>image/svg+xml</dc:format>
        <dc:type
           rdf:resource="http://purl.org/dc/dcmitype/StillImage" />
        <dc:title />
      </cc:Work>
    </rdf:RDF>
  </metadata>
  <defs
     id="defs24">
    <style
       id="style870"
       type="text/css"><![CDATA[
    .fil0 {fill:#005CAB}
   ]]></style>
  </defs>
  <sodipodi:namedview
     inkscape:guide-bbox="true"
     showguides="true"
     inkscape:document-rotation="0"
     inkscape:current-layer="svg20"
     inkscape:window-maximized="0"
     inkscape:window-y="34"
     inkscape:window-x="1285"
     inkscape:cy="-571.55858"
     inkscape:cx="-670.81486"
     inkscape:zoom="0.23046875"
     showgrid="false"
     id="namedview22"
     inkscape:window-height="1396"
     inkscape:window-width="1265"
     inkscape:pageshadow="2"
     inkscape:pageopacity="0"
     guidetolerance="10"
     gridtolerance="10"
     objecttolerance="10"
     borderopacity="1"
     bordercolor="#666666"
     pagecolor="#ffffff">
    <sodipodi:guide
       id="guide16"
       orientation="0,-1"
       position="-176.41715,337.88394"
       inkscape:locked="false" />
    <sodipodi:guide
       position="201.76272,-501.15255"
       orientation="1,0"
       id="guide895"
       inkscape:locked="false" />
  </sodipodi:namedview>
  <g
     style="clip-rule:evenodd;fill:#ffffff;fill-rule:evenodd;image-rendering:optimizeQuality;shape-rendering:geometricPrecision;text-rendering:geometricPrecision"
     id="g893"
     transform="matrix(115.45428,0,0,115.45428,101.63435,219.08077)">
    <g
       id="Layer_x0020_1"
       style="fill:#ffffff">
      <metadata
         id="CorelCorpID_0Corel-Layer" />
      <g
         id="_218150328"
         style="fill:#ffffff">
        <path
           d="m 2.56486,0.138161 c -0.145866,0 -0.223472,0.081811 -0.226472,0.187846 C 2.3174234,0.210645 2.217857,0.135314 2.104506,0.135314 1.991734,0.13531006 1.89549,0.2103494 1.874506,0.324349 1.8741241,0.222999 1.794951,0.135518 1.691986,0.135518 c -0.044847,0 -0.08376,0.0172244 -0.114846,0.0472953 V 0.0349273 H 1.467431 v 0.329335 c 0,0.010811 -3.937e-4,0.0177953 -0.00193,0.033811 -0.00665,0.0684134 -0.052709,0.102177 -0.102831,0.102177 -0.052102,0 -0.099138,-0.024622 -0.100551,-0.101795 C 1.2618797,0.3851285 1.2614978,0.3795931 1.2614978,0.3701285 v -0.123299 h 0.170799 v -0.103535 h -0.170799 v -0.108366 h -0.111224 v 0.289969 c -0.021122,-0.107945 -0.116224,-0.189409 -0.23041698,-0.189409 -0.0735512,-3.94e-6 -0.139193,0.0338425 -0.182244,0.0867598 V 0.1381617 h -0.012189 c -0.143295,0 -0.220724,0.0789646 -0.226264,0.18228 -0.0210472,-0.104693 -0.107618,-0.18228 -0.217016,-0.18228 -0.0572598,0 -0.102,0.020811 -0.136969,0.0557756 v -0.15978 h -0.107362 v 0.277705 c 0,0.0205039 6.0237e-4,0.0398189 8.4646e-4,0.0583189 0.0015472,0.128484 0.0914449,0.233898 0.230709,0.233898 0.120173,0 0.207673,-0.0782087 0.229453,-0.182429 v 0.171449 h 0.110031 v -0.21402 c 0,-0.009764 5.5512e-4,-0.0205906 8.622e-4,-0.0305906 0.002051,-0.0652205 0.0447559,-0.104067 0.11267301,-0.105205 -0.0235866,0.0365984 -0.037311,0.0801181 -0.037311,0.126898 0,0.129638 0.105106,0.234677 0.23478,0.234677 0.11419301,-3.94e-6 0.20929501,-0.0814331 0.23041701,-0.189382 v 2.9134e-4 c 0,0.11274 0.090535,0.189622 0.199591,0.189622 0.045984,-3.94e-6 0.086583,-0.0196929 0.117567,-0.0519134 v 0.039563 h 0.109709 v -0.232929 c 5.9e-5,-0.005531 2.598e-4,-0.01 3.976e-4,-0.0142913 0.00278,-0.0747244 0.046583,-0.10724 0.094693,-0.10724 0.047705,0 0.088965,0.0326378 0.090618,0.106874 3.819e-4,0.006449 4.646e-4,0.0107638 4.646e-4,0.0180197 l 3.9e-6,0.229591 0.111205,5.118e-5 v -0.174232 c 0.020913,0.112504 0.116276,0.18513 0.230039,0.18513 0.129016,-3.94e-6 0.201898,-0.0825709 0.221445,-0.168933 h -0.107583 c -0.00941,0.0307047 -0.047606,0.0778465 -0.113917,0.0778465 -0.059807,-3.94e-6 -0.110827,-0.0408504 -0.123724,-0.107555 l 0.357457,-3.94e-6 v 0.187732 h 0.110035 v -0.21402 c 0,-0.009764 5.63e-4,-0.0205906 9.095e-4,-0.0305906 0.00206,-0.0662087 0.045965,-0.105327 0.115673,-0.105327 h 0.012189 v -0.105 H 2.5648611 Z M 0.26937,0.498437 c -0.0724331,0 -0.128224,-0.0566654 -0.128224,-0.128256 0,-0.0715866 0.0554291,-0.128228 0.128224,-0.128228 0.0727953,-3.94e-6 0.128244,0.056315 0.128244,0.128228 0,0.0719173 -0.0557953,0.12826 -0.128244,0.128256 z m 0.650488,0 c -0.0724291,0 -0.128209,-0.0566654 -0.128209,-0.128256 0,-0.0715866 0.0554291,-0.128228 0.128209,-0.128228 0.072811,-3.94e-6 0.128244,0.056315 0.128244,0.128228 0,0.0719173 -0.0557953,0.12826 -0.128244,0.128256 z M 1.985618,0.318661 C 2.003705,0.2626059 2.050374,0.227972 2.104512,0.227972 c 0.069587,-3.94e-6 0.111276,0.0558268 0.119193,0.090689 z"
           class="fil0"
           id="_217143760"
           inkscape:connector-curvature="0"
           style="fill:#ffffff" />
        <path
           d="m 2.52602,0.545492 c 0,0.030378 0.024705,0.054626 0.055098,0.054626 0.030402,0 0.055126,-0.0242441 0.055126,-0.054622 C 2.6362483,0.5150787 2.61152,0.4907873 2.5811184,0.4907873 2.5507286,0.49078336 2.52602,0.5150786 2.52602,0.545492 Z m 0.00719,0 c 0,-0.0264291 0.021476,-0.0479488 0.047905,-0.0479488 0.026437,-3.94e-6 0.047937,0.0215197 0.047937,0.0479528 0,0.0264055 -0.0215,0.0479094 -0.047937,0.0479094 -0.026429,-3.94e-6 -0.047909,-0.0215 -0.047905,-0.0479134 z"
           class="fil0"
           id="_217147792"
           inkscape:connector-curvature="0"
           style="fill:#ffffff" />
        <path
           d="m 2.56471,0.519866 h 0.022307 c 0.00878,0 0.011913,0.004094 0.011913,0.0115039 0,0.007429 -0.0031,0.012122 -0.011882,0.012122 l -0.022339,-3.94e-6 z m 0,0.0309331 h 0.021874 c 0.00688,0 0.00974,0.004264 0.010433,0.011748 2.087e-4,0.002189 5.709e-4,0.004945 7.913e-4,0.007598 2.914e-4,0.003673 9.331e-4,0.006468 0.00128,0.008177 l 0.00976,-3.94e-6 v -0.001272 c -0.00102,-0.001295 -0.0019,-0.003654 -0.00242,-0.008433 -2.322e-4,-0.002264 -5.669e-4,-0.004791 -8.425e-4,-0.007567 -7.204e-4,-0.007331 -0.00314,-0.0119291 -0.008,-0.0143976 0.00603,-0.00202 0.010307,-0.007866 0.010307,-0.0165354 3.9e-6,-0.0110512 -0.00714,-0.0177087 -0.020587,-0.0177087 l -0.031307,-3.93e-6 v 0.0659173 h 0.00871 z"
           class="fil0"
           id="_217148272"
           inkscape:connector-curvature="0"
           style="fill:#ffffff" />
      </g>
    </g>
  </g>
</svg>
