<?xml version="1.0" encoding="UTF-8" standalone="no"?>
<!-- Generator: Adobe Illustrator 19.1.0, SVG Export Plug-In . SVG Version: 6.00 Build 0)  -->

<svg
   xmlns:dc="http://purl.org/dc/elements/1.1/"
   xmlns:cc="http://creativecommons.org/ns#"
   xmlns:rdf="http://www.w3.org/1999/02/22-rdf-syntax-ns#"
   xmlns:svg="http://www.w3.org/2000/svg"
   xmlns="http://www.w3.org/2000/svg"
   xmlns:sodipodi="http://sodipodi.sourceforge.net/DTD/sodipodi-0.dtd"
   xmlns:inkscape="http://www.inkscape.org/namespaces/inkscape"
   version="1.1"
   x="0px"
   y="0px"
   viewBox="0 0 512 512"
   xml:space="preserve"
   id="svg48"
   sodipodi:docname="app-calendar.svg"
   width="512"
   height="512"
   inkscape:version="0.92.3 (2405546, 2018-03-11)"><metadata
   id="metadata54"><rdf:RDF><cc:Work
       rdf:about=""><dc:format>image/svg+xml</dc:format><dc:type
         rdf:resource="http://purl.org/dc/dcmitype/StillImage" /><dc:title /></cc:Work></rdf:RDF></metadata><defs
   id="defs52">
	
	

		
		
		
		
		
		
		
		
		
	</defs><sodipodi:namedview
   pagecolor="#ffffff"
   bordercolor="#666666"
   borderopacity="1"
   objecttolerance="10"
   gridtolerance="10"
   guidetolerance="10"
   inkscape:pageopacity="0"
   inkscape:pageshadow="2"
   inkscape:window-width="1265"
   inkscape:window-height="1396"
   id="namedview50"
   showgrid="false"
   inkscape:snap-bbox="true"
   inkscape:snap-bbox-midpoints="true"
   inkscape:bbox-paths="true"
   inkscape:zoom="0.921875"
   inkscape:cx="356.18051"
   inkscape:cy="106.2817"
   inkscape:window-x="1285"
   inkscape:window-y="34"
   inkscape:window-maximized="0"
   inkscape:current-layer="svg48" />
<style
   type="text/css"
   id="style2">
	.st0{fill:#77B3D4;}
	.st1{opacity:0.2;}
	.st2{fill:#231F20;}
	.st3{fill:#FFFFFF;}
	.st4{fill:#C75C5C;}
	.st5{fill:#4F5D73;}
	.st6{fill:#E0E0D1;}
</style>
<g
   id="g866"
   transform="matrix(1.0209517,0,0,1.0209517,-5.363636,0.31818154)"><g
     transform="matrix(5.5652174,0,0,5.5652174,77.913044,83.478262)"
     style="stroke-width:0.15625"
     id="g14">
			<path
   style="fill:#ffffff;stroke-width:0.15625"
   inkscape:connector-curvature="0"
   id="path12"
   d="m 12,23 v 25 c 0,2.2 1.8,4 4,4 h 32 c 2.2,0 4,-1.8 4,-4 V 23 Z"
   class="st3" />
		</g><g
     transform="matrix(5.5652174,0,0,5.5652174,77.913044,83.478262)"
     style="opacity:0.2;fill:#2e3440;fill-opacity:1;stroke-width:0.15625"
     id="g18"
     class="st1">
			<path
   style="fill:#2e3440;fill-opacity:1;stroke-width:0.15625"
   inkscape:connector-curvature="0"
   id="path16"
   d="M 48,14 H 16 c -2.2,0 -4,1.8 -4,4 v 7 h 40 v -7 c 0,-2.2 -1.8,-4 -4,-4 z"
   class="st2" />
		</g><g
     transform="matrix(5.5652174,0,0,5.5652174,77.913044,83.478262)"
     style="fill:#bf616a;fill-opacity:1;stroke-width:0.15625"
     id="g22">
			<path
   style="fill:#bf616a;fill-opacity:1;stroke-width:0.15625"
   inkscape:connector-curvature="0"
   id="path20"
   d="M 48,12 H 16 c -2.2,0 -4,1.8 -4,4 v 7 h 40 v -7 c 0,-2.2 -1.8,-4 -4,-4 z"
   class="st4" />
		</g><g
     transform="matrix(5.5652174,0,0,5.5652174,77.913044,83.478262)"
     style="fill:#2e3440;fill-opacity:1;stroke-width:0.15625"
     id="g26">
			<path
   style="fill:#2e3440;fill-opacity:1;stroke-width:0.15625"
   inkscape:connector-curvature="0"
   id="path24"
   d="m 32,48 c -1.1,0 -2,-0.9 -2,-2 0,-5.5 1.8,-9.5 3.5,-12 H 27 c -1.1,0 -2,-0.9 -2,-2 0,-1.1 0.9,-2 2,-2 h 11 c 0.9,0 1.6,0.6 1.9,1.4 0.3,0.8 0,1.7 -0.7,2.2 C 39,33.8 34,37.5 34,46 c 0,1.1 -0.9,2 -2,2 z"
   class="st5" />
		</g><g
     transform="matrix(5.5652174,0,0,5.5652174,77.913044,83.478262)"
     style="opacity:0.2;stroke-width:0.15625"
     id="g30"
     class="st1">
			<path
   style="fill:#231f20;stroke-width:0.15625"
   inkscape:connector-curvature="0"
   id="path28"
   d="m 20,21 c -1.1,0 -2,-0.9 -2,-2 v -7 c 0,-1.1 0.9,-2 2,-2 v 0 c 1.1,0 2,0.9 2,2 v 7 c 0,1.1 -0.9,2 -2,2 z"
   class="st2" />
		</g><g
     transform="matrix(5.5652174,0,0,5.5652174,77.913044,83.478262)"
     style="opacity:0.2;stroke-width:0.15625"
     id="g34"
     class="st1">
			<path
   style="fill:#231f20;stroke-width:0.15625"
   inkscape:connector-curvature="0"
   id="path32"
   d="m 45,21 c -1.1,0 -2,-0.9 -2,-2 v -7 c 0,-1.1 0.9,-2 2,-2 v 0 c 1.1,0 2,0.9 2,2 v 7 c 0,1.1 -0.9,2 -2,2 z"
   class="st2" />
		</g><g
     transform="matrix(5.5652174,0,0,5.5652174,77.913044,83.478262)"
     style="fill:#8fbcbb;fill-opacity:1;stroke-width:0.15625"
     id="g38">
			<path
   style="fill:#8fbcbb;fill-opacity:1;stroke-width:0.15625"
   inkscape:connector-curvature="0"
   id="path36"
   d="m 20,19 c -1.1,0 -2,-0.9 -2,-2 v -7 c 0,-1.1 0.9,-2 2,-2 v 0 c 1.1,0 2,0.9 2,2 v 7 c 0,1.1 -0.9,2 -2,2 z"
   class="st6" />
		</g><g
     transform="matrix(5.5652174,0,0,5.5652174,77.913044,83.478262)"
     style="fill:#8fbcbb;fill-opacity:1;stroke-width:0.15625"
     id="g42">
			<path
   style="fill:#8fbcbb;fill-opacity:1;stroke-width:0.15625"
   inkscape:connector-curvature="0"
   id="path40"
   d="m 45,19 c -1.1,0 -2,-0.9 -2,-2 v -7 c 0,-1.1 0.9,-2 2,-2 v 0 c 1.1,0 2,0.9 2,2 v 7 c 0,1.1 -0.9,2 -2,2 z"
   class="st6" />
		</g></g>
<g
   id="Layer_2"
   transform="translate(0,448)">
</g>
</svg>