<?xml version="1.0" encoding="UTF-8" standalone="no"?>
<!-- Generator: Adobe Illustrator 16.0.0, SVG Export Plug-In . SVG Version: 6.00 Build 0)  -->

<svg
   version="1.1"
   id="Layer_1"
   x="0px"
   y="0px"
   width="512"
   height="512"
   viewBox="0 0 512 512"
   enable-background="new 0 0 97 97"
   xml:space="preserve"
   sodipodi:docname="app-grafana.svg"
   inkscape:version="1.1.1 (3bf5ae0d25, 2021-09-20, custom)"
   xmlns:inkscape="http://www.inkscape.org/namespaces/inkscape"
   xmlns:sodipodi="http://sodipodi.sourceforge.net/DTD/sodipodi-0.dtd"
   xmlns="http://www.w3.org/2000/svg"
   xmlns:svg="http://www.w3.org/2000/svg"
   xmlns:rdf="http://www.w3.org/1999/02/22-rdf-syntax-ns#"
   xmlns:cc="http://creativecommons.org/ns#"
   xmlns:dc="http://purl.org/dc/elements/1.1/"><metadata
   id="metadata11"><rdf:RDF><cc:Work
       rdf:about=""><dc:format>image/svg+xml</dc:format><dc:type
         rdf:resource="http://purl.org/dc/dcmitype/StillImage" /></cc:Work></rdf:RDF></metadata><defs
   id="defs9">
	
</defs><sodipodi:namedview
   pagecolor="#ffffff"
   bordercolor="#666666"
   borderopacity="1"
   objecttolerance="10"
   gridtolerance="10"
   guidetolerance="10"
   inkscape:pageopacity="0"
   inkscape:pageshadow="2"
   inkscape:window-width="1265"
   inkscape:window-height="1420"
   id="namedview7"
   showgrid="false"
   inkscape:zoom="0.32"
   inkscape:cx="479.6875"
   inkscape:cy="296.875"
   inkscape:window-x="1285"
   inkscape:window-y="10"
   inkscape:window-maximized="0"
   inkscape:current-layer="Layer_1"
   inkscape:snap-bbox="false"
   inkscape:object-paths="true"
   inkscape:snap-global="false"
   inkscape:pagecheckerboard="0" />

<path
   d="m 380.53853,241.67828 c -0.48683,-4.2184 -1.2001,-9.093 -2.64927,-14.41547 -1.44918,-5.32247 -3.8607,-11.09282 -6.9968,-17.30064 -3.37387,-5.98908 -7.47232,-12.42605 -13.01994,-18.41513 -2.17377,-2.4373 -4.58528,-4.65586 -6.9968,-7.09316 3.86069,-13.978 -4.58529,-26.1749 -4.58529,-26.1749 -14.70686,-0.88535 -23.86611,4.2184 -27.23997,6.43696 -0.48683,-0.21873 -1.2001,-0.44788 -1.68693,-0.66661 -2.41152,-0.88534 -5.06079,-1.77069 -7.71007,-2.66645 -2.64927,-0.66661 -5.30987,-1.55195 -7.95914,-1.99983 -2.64928,-0.66661 -5.54763,-1.10407 -8.43466,-1.55195 -0.48683,0 -0.96234,-0.21873 -1.44917,-0.21873 C 285.53828,138.9785 267.21979,131 267.21979,131 c -20.97908,12.426 -25.07753,29.06008 -25.07753,29.06008 0,0 0,0.44788 -0.23776,0.88534 -1.2001,0.21873 -2.17376,0.66661 -3.37386,0.88534 -1.44918,0.44788 -3.13611,0.88535 -4.58528,1.55196 -1.44918,0.66661 -3.13611,1.10407 -4.58528,1.77068 -3.13611,1.33323 -6.02314,2.66645 -9.15925,4.2184 a 96.460753,88.742605 0 0 0 -8.43465,4.88501 c -0.48683,-0.21873 -0.72459,-0.44788 -0.72459,-0.44788 -28.21364,-9.97833 -53.27985,1.99984 -53.27985,1.99984 -2.17376,27.72685 11.33301,45.02749 13.98228,48.1314 -0.72458,1.77069 -1.2001,3.32264 -1.92468,5.10374 a 120.66651,111.01158 0 0 0 -4.58529,19.30048 c -0.23775,0.88534 -0.23775,1.99983 -0.48683,2.88517 -26.03987,11.75944 -33.74994,36.15324 -33.74994,36.15324 21.70367,23.071 47.25671,24.40422 47.25671,24.40422 a 108.80139,100.09583 0 0 0 11.09525,15.08207 c 1.68693,1.99984 3.61162,3.77052 5.54763,5.77036 -7.95915,20.85243 1.2001,38.3718 1.2001,38.3718 24.35294,0.88534 40.25991,-9.7596 43.63377,-12.1969 l 7.23456,1.99983 c 7.47231,1.77069 15.1937,2.88518 22.66601,3.10391 h 9.88383 C 290.84815,379.00017 311.10264,381 311.10264,381 c 14.22003,-13.978 15.1937,-27.50812 15.1937,-30.61203 v -0.21873 -0.44788 -0.66661 c 2.89835,-1.99984 5.78538,-3.98926 8.68373,-6.20782 5.78538,-4.65586 10.60842,-10.20748 14.94463,-15.96742 0.48683,-0.44788 0.72458,-1.10407 1.20009,-1.55195 16.15605,0.88534 27.48905,-9.31173 27.48905,-9.31173 -2.64927,-15.52995 -12.29534,-23.07099 -14.22003,-24.40421 l -0.23776,-0.21874 -0.23775,-0.21873 -0.23776,-0.21873 c 0,-0.88534 0.23776,-1.77069 0.23776,-2.88518 0.23775,-1.77068 0.23775,-3.32264 0.23775,-5.10374 v -2.21856 -2.88518 -1.33322 c 0,-0.44788 0,-0.88534 -0.23775,-1.33322 l -0.48683,-2.66645 c -0.23776,-1.77068 -0.72459,-3.32264 -0.96235,-5.10374 a 71.632299,65.900758 0 0 0 -8.1969,-18.63386 75.108056,69.098408 0 0 0 -13.74452,-15.08208 66.684722,61.349054 0 0 0 -17.35615,-10.20748 60.774803,55.912007 0 0 0 -19.04307,-4.88501 c -3.13611,-0.44788 -6.50997,-0.44788 -9.64607,-0.44788 h -1.44918 -3.37386 c -1.68693,0.21873 -3.37386,0.44788 -4.82304,0.66661 -6.50997,1.10407 -12.5331,3.32264 -17.84297,6.20782 -5.30987,2.88517 -9.88383,6.65569 -13.74453,10.86367 a 48.502097,44.621282 0 0 0 -8.68373,13.53013 c -1.92469,4.65586 -3.13611,9.7596 -3.37386,14.41546 v 5.32248 c 0,0.66661 0,1.10407 0.23775,1.77068 a 41.233575,37.934339 0 0 0 7.95915,18.8526 c 2.89835,3.55178 6.02313,6.20781 9.64607,8.42638 3.61162,2.21856 7.23456,3.77052 11.09525,4.88501 3.8607,1.11449 7.47231,1.55195 10.84618,1.33322 h 5.04947 c 0.48683,0 0.96234,-0.21873 1.2001,-0.21873 0.48683,0 0.72458,-0.21873 1.20009,-0.21873 0.72459,-0.21874 1.68694,-0.44788 2.41152,-0.66661 1.44918,-0.44788 2.89835,-1.10408 4.33621,-1.55196 1.44917,-0.66661 2.64927,-1.33322 3.61162,-1.99983 0.23775,-0.21873 0.72458,-0.44788 0.96234,-0.66661 a 2.7172043,2.4997917 0 0 0 0.48683,-3.55179 3.373862,3.103908 0 0 0 -3.61162,-0.66661 c -0.23775,0.21873 -0.48683,0.21873 -0.96234,0.44788 a 16.190009,14.894592 0 0 1 -3.13611,1.10407 c -1.20009,0.21873 -2.41151,0.66661 -3.61161,0.88534 -0.72459,0 -1.2001,0.21874 -1.92469,0.21874 h -4.08713 c 0,0 -0.23775,0 0,0 h -0.97366 c -0.24908,0 -0.72459,0 -0.96235,-0.21874 -2.64927,-0.44787 -5.54762,-1.10407 -8.1969,-2.21856 -2.64927,-1.11449 -5.30987,-2.66644 -7.47231,-4.65586 -2.41152,-1.99984 -4.3362,-4.2184 -6.02313,-6.87443 -1.68693,-2.65603 -2.64928,-5.5412 -3.13611,-8.42638 -0.23776,-1.55195 -0.48683,-3.10391 -0.23776,-4.65586 v -1.33322 c 0,0.21873 0,0 0,0 v -0.44788 -0.66662 c 0,-0.88534 0.23776,-1.55195 0.48684,-2.43729 a 35.255726,32.434797 0 0 1 10.37066,-17.96725 c 1.44918,-1.33323 2.89835,-2.4373 4.58528,-3.32264 1.68693,-1.10408 3.37386,-1.99984 5.0608,-2.66645 1.68693,-0.66661 3.61161,-1.33322 5.54762,-1.77068 1.92469,-0.44788 3.8607,-0.88535 5.78538,-0.88535 0.96235,0 1.92469,-0.21873 2.89835,-0.21873 h 1.92469 c 0.23776,0 0,0 0,0 h 0.96234 a 45.807536,42.142321 0 0 1 18.32981,5.10374 c 7.71007,3.98925 14.22004,9.97834 18.08073,17.30064 1.92469,3.55179 3.37386,7.54104 4.09845,11.75944 0.23776,1.10407 0.23776,1.99983 0.48683,3.10391 v 5.77035 c 0,1.10408 -0.23775,2.21857 -0.23775,3.32264 -0.23776,1.10408 -0.23776,2.21857 -0.48683,3.32264 l -0.72459,3.32264 c -0.23776,1.10407 -1.44918,4.2184 -2.17377,6.43696 -0.72458,2.21857 -4.09845,8.20765 -6.9968,11.75944 a 58.465179,53.787184 0 0 1 -22.66601,17.08191 c -4.58528,1.77069 -9.15924,3.32264 -13.98228,3.98925 a 36.467146,33.549288 0 0 1 -7.23456,0.66661 h -3.61161 c 0.23775,0 0,0 0,0 h -0.23776 c -1.2001,0 -2.64927,0 -3.86069,-0.21873 -5.30987,-0.44788 -10.37067,-1.33322 -15.43146,-2.66644 -5.06079,-1.33323 -9.88383,-3.10391 -14.46911,-5.32248 a 78.753638,72.452296 0 0 1 -23.86611,-18.18598 c -3.13611,-3.77052 -6.02314,-7.75977 -8.43466,-11.97817 -2.41152,-4.2184 -4.09845,-8.65553 -5.54762,-13.08224 a 62.144727,57.172319 0 0 1 -2.41152,-13.74886 v -5.10374 -1.77068 c 0,-2.21857 0.23775,-4.65587 0.72458,-7.09316 0.23776,-2.4373 0.72459,-4.65587 1.2001,-7.09316 0.47551,-2.4373 1.2001,-4.65586 1.92469,-7.09316 0.72459,-2.4373 3.13611,-9.09299 5.30987,-13.31139 4.3362,-8.42638 9.88383,-15.96742 16.3938,-21.95651 1.68693,-1.55195 3.37386,-2.88517 5.30987,-4.21839 0.72459,-0.66662 2.41152,-1.99984 4.3362,-3.10391 1.92469,-1.10408 3.8607,-2.21857 6.02314,-3.10391 0.96234,-0.44788 1.92469,-0.88534 3.13611,-1.33322 0.48683,-0.21873 0.96234,-0.44788 1.68693,-0.66661 0.48683,-0.21874 0.96234,-0.44788 1.68693,-0.66661 2.17376,-0.88535 4.3362,-1.55196 6.50997,-2.21857 0.48683,-0.21873 1.2001,-0.21873 1.68693,-0.44788 0.48683,-0.22915 1.2001,-0.21873 1.68693,-0.44788 0.48683,-0.22915 2.17376,-0.44788 3.37386,-0.88534 0.48683,-0.21873 1.2001,-0.21873 1.68693,-0.44788 0.48683,0 1.2001,-0.21873 1.68693,-0.21873 0.48684,0 1.2001,-0.21873 1.68693,-0.21873 l 1.92469,-0.44788 c 0.48683,0 1.2001,-0.21874 1.68693,-0.21874 0.72459,0 1.2001,-0.21873 1.92469,-0.21873 0.48683,0 1.44917,-0.21873 1.92468,-0.21873 0.47552,0 0.72459,0 1.2001,-0.21873 h 1.68693 c 0.72459,0 1.2001,0 1.92469,-0.21873 h 0.96234 c 0,0 0.23776,0 0,0 h 8.92149 c 4.33621,0.21873 8.68373,0.66661 12.78218,1.33322 a 81.901067,75.347888 0 0 1 23.14153,7.09316 86.905251,79.951671 0 0 1 18.80531,11.31156 c 0.23776,0.21873 0.72459,0.44788 0.96235,0.88534 0.23775,0.21873 0.72459,0.44788 0.96234,0.88534 0.72459,0.44788 1.2001,1.10408 1.92469,1.55196 0.72459,0.44788 1.2001,1.10407 1.92468,1.55195 0.48684,0.66661 1.2001,1.10407 1.68693,1.77069 a 89.214875,82.076494 0 0 1 15.91829,20.62328 c 0.23776,0.21873 0.23776,0.44788 0.48684,0.88534 0.23775,0.21873 0.23775,0.44788 0.48683,0.88534 0.24908,0.43747 0.48683,1.10408 0.96234,1.55196 0.23776,0.44788 0.48683,1.10407 0.72459,1.55195 0.23775,0.44788 0.48683,1.10408 0.72459,1.55195 0.96234,1.99984 1.68693,3.98926 2.41152,5.98909 1.20009,3.10391 1.92468,5.77035 2.64927,7.98892 a 2.3096237,2.1248229 0 0 0 2.17376,1.55195 c 1.2001,0 1.92469,-0.88534 1.92469,-1.99983 -0.23776,-2.66645 -0.23776,-5.54121 -0.48683,-8.87426 z"
   id="path861"
   style="stroke-width:10.8593;fill:#ffffff" /></svg>
