<?xml version="1.0" encoding="UTF-8" standalone="no"?>
<svg
   height="512"
   width="512"
   viewBox="-6.659355 -11.5136 24.624815 44.212224"
   version="1.1"
   id="svg113"
   sodipodi:docname="app-admin.svg"
   inkscape:version="1.1.1 (3bf5ae0d25, 2021-09-20, custom)"
   xmlns:inkscape="http://www.inkscape.org/namespaces/inkscape"
   xmlns:sodipodi="http://sodipodi.sourceforge.net/DTD/sodipodi-0.dtd"
   xmlns:xlink="http://www.w3.org/1999/xlink"
   xmlns="http://www.w3.org/2000/svg"
   xmlns:svg="http://www.w3.org/2000/svg"
   xmlns:rdf="http://www.w3.org/1999/02/22-rdf-syntax-ns#"
   xmlns:cc="http://creativecommons.org/ns#"
   xmlns:dc="http://purl.org/dc/elements/1.1/">
  <metadata
     id="metadata117">
    <rdf:RDF>
      <cc:Work
         rdf:about="">
        <dc:format>image/svg+xml</dc:format>
        <dc:type
           rdf:resource="http://purl.org/dc/dcmitype/StillImage" />
      </cc:Work>
    </rdf:RDF>
  </metadata>
  <sodipodi:namedview
     pagecolor="#ffffff"
     bordercolor="#666666"
     borderopacity="1"
     objecttolerance="10"
     gridtolerance="10"
     guidetolerance="10"
     inkscape:pageopacity="0"
     inkscape:pageshadow="2"
     inkscape:window-width="1265"
     inkscape:window-height="1420"
     id="namedview115"
     showgrid="false"
     inkscape:zoom="1.18"
     inkscape:cx="250.42373"
     inkscape:cy="216.94915"
     inkscape:window-x="1285"
     inkscape:window-y="10"
     inkscape:window-maximized="0"
     inkscape:current-layer="g942"
     inkscape:snap-object-midpoints="false"
     inkscape:snap-bbox="true"
     inkscape:object-paths="true"
     inkscape:pagecheckerboard="0" />
  <defs
     id="defs71">
    <linearGradient
       id="j">
      <stop
         offset="0"
         id="stop2" />
      <stop
         offset="1"
         stop-opacity="0"
         id="stop4" />
    </linearGradient>
    <linearGradient
       id="i">
      <stop
         offset="0"
         stop-color="#f9f9f9"
         id="stop7" />
      <stop
         offset="1"
         stop-color="#eeeeec"
         stop-opacity=".6204"
         id="stop9" />
    </linearGradient>
    <linearGradient
       id="h">
      <stop
         offset="0"
         stop-color="#787b76"
         id="stop12" />
      <stop
         offset=".8713"
         stop-color="#babcb9"
         id="stop14" />
      <stop
         offset="1"
         stop-color="#787b76"
         id="stop16" />
    </linearGradient>
    <linearGradient
       id="f">
      <stop
         offset="0"
         stop-color="#fff"
         id="stop19" />
      <stop
         offset="1"
         stop-color="#fff"
         stop-opacity="0"
         id="stop21" />
    </linearGradient>
    <linearGradient
       id="e">
      <stop
         offset="0"
         stop-color="#c00"
         id="stop24" />
      <stop
         offset=".3651"
         stop-color="#ef0000"
         id="stop26" />
      <stop
         offset="1"
         stop-color="#a00"
         id="stop28" />
    </linearGradient>
    <linearGradient
       id="g">
      <stop
         offset="0"
         stop-color="#f0f2ef"
         id="stop31" />
      <stop
         offset="1"
         stop-color="#cdd1c8"
         id="stop33" />
    </linearGradient>
    <linearGradient
       id="d">
      <stop
         offset="0"
         stop-color="#888a85"
         id="stop36" />
      <stop
         offset="1"
         stop-color="#2e3436"
         id="stop38" />
    </linearGradient>
    <linearGradient
       id="c">
      <stop
         offset="0"
         stop-color="#555753"
         id="stop41" />
      <stop
         offset="1"
         stop-color="#2e3436"
         id="stop43" />
    </linearGradient>
    <linearGradient
       id="b">
      <stop
         offset="0"
         stop-color="#2e3436"
         id="stop46" />
      <stop
         offset="1"
         stop-color="#2e3436"
         stop-opacity="0"
         id="stop48" />
    </linearGradient>
    <linearGradient
       id="a">
      <stop
         offset="0"
         stop-color="#babdb6"
         id="stop51" />
      <stop
         offset=".133"
         stop-color="#eeeeec"
         id="stop53" />
      <stop
         offset="1"
         stop-color="#babdb6"
         id="stop55" />
    </linearGradient>
    <linearGradient
       gradientUnits="userSpaceOnUse"
       y2="19.4657"
       x2="23.7386"
       y1="4.1566"
       x1="23.7386"
       id="t"
       xlink:href="#a"
       gradientTransform="matrix(0.47993647,0,0,0.47993647,-5.8407319,-1.9488837)" />
    <linearGradient
       gradientUnits="userSpaceOnUse"
       y2="22.6325"
       x2="23.688101"
       y1="30.057199"
       x1="23.7323"
       id="u"
       xlink:href="#b"
       gradientTransform="matrix(0.47993647,0,0,0.47993647,-5.8407319,-1.9488837)" />
    <linearGradient
       gradientUnits="userSpaceOnUse"
       y2="36.358002"
       x2="23.9375"
       y1="30.616899"
       x1="23.9375"
       id="n"
       xlink:href="#c"
       gradientTransform="matrix(0.47993647,0,0,0.47993647,-5.8407319,-1.9488837)" />
    <linearGradient
       gradientUnits="userSpaceOnUse"
       y2="23.939501"
       x2="20.563101"
       y1="32.248001"
       x1="20.771099"
       id="o"
       xlink:href="#d"
       gradientTransform="matrix(0.47993647,0,0,0.47993647,-5.8407319,-1.9488837)" />
    <linearGradient
       gradientUnits="userSpaceOnUse"
       y2="9"
       x2="14.8125"
       y1="5.6244001"
       x1="14.8125"
       id="p"
       xlink:href="#e"
       gradientTransform="matrix(0.47993647,0,0,0.47993647,-5.8407319,-1.9488837)" />
    <linearGradient
       gradientUnits="userSpaceOnUse"
       y2="10.0086"
       x2="24.040501"
       y1="5.0689998"
       x1="24.040501"
       id="q"
       xlink:href="#f"
       gradientTransform="matrix(0.47993647,0,0,0.47993647,-5.8407319,-1.9488837)" />
    <linearGradient
       gradientUnits="userSpaceOnUse"
       y2="24"
       x2="14.125"
       y1="33.125"
       x1="13.625"
       id="m"
       xlink:href="#g"
       gradientTransform="matrix(0.47993647,0,0,0.47993647,-5.8407319,-1.9488837)" />
    <linearGradient
       gradientUnits="userSpaceOnUse"
       y2="42.5"
       x2="10.1875"
       y1="20.25"
       x1="10.1875"
       id="l"
       xlink:href="#h"
       gradientTransform="matrix(0.47993647,0,0,0.47993647,-5.8407319,-1.9488837)" />
    <linearGradient
       gradientUnits="userSpaceOnUse"
       y2="17.0709"
       x2="23.936701"
       y1="35.958698"
       x1="24.7188"
       id="r"
       xlink:href="#i"
       gradientTransform="matrix(0.47993647,0,0,0.47993647,-5.8407319,-1.9488837)" />
    <linearGradient
       gradientUnits="userSpaceOnUse"
       y2="21.814301"
       x2="18.3125"
       y1="20.743799"
       x1="18.3125"
       id="s"
       xlink:href="#j"
       gradientTransform="matrix(0.47993647,0,0,0.47993647,-5.8407319,-1.9488837)" />
    <filter
       height="1.2799"
       y="-0.14"
       width="1.0595"
       x="-0.0298"
       id="k">
      <feGaussianBlur
         stdDeviation=".5197"
         id="feGaussianBlur68" />
    </filter>
    <filter
       id="k-3"
       x="-0.0298"
       width="1.0595"
       y="-0.14"
       height="1.2799">
      <feGaussianBlur
         id="feGaussianBlur68-7"
         stdDeviation=".5197" />
    </filter>
  </defs>
  <g
     id="g936"
     transform="matrix(0.04103249,0,0,0.04216406,-4.8512649,-0.20148736)"
     style="fill:#ffffff;stroke:#000000">
    <g
       id="g934"
       style="fill:#ffffff;stroke:#000000">
      <path
         d="m 235.082,392.745 c -5.771,0 -10.449,4.678 -10.449,10.449 v 4.678 c 0,5.771 4.678,10.449 10.449,10.449 5.77,0 10.449,-4.678 10.449,-10.449 v -4.678 c 0,-5.771 -4.678,-10.449 -10.449,-10.449 z"
         id="path932"
         style="fill:#ffffff;stroke:#000000" />
    </g>
  </g>
  <g
     id="g942"
     transform="matrix(0.04103249,0,0,0.04216406,-4.8512649,-0.20148736)"
     style="fill:#ffffff;stroke:#000000">
    <g
       id="g940"
       style="fill:#ffffff;stroke:#000000">
      <path
         d="m 492.948,313.357 -31.393,-25.855 c 1.58,-10.4 2.38,-20.968 2.38,-31.502 0,-10.534 -0.8,-21.104 -2.381,-31.504 l 31.394,-25.856 c 10.032,-8.262 12.595,-22.42 6.099,-33.66 L 456.35,91.029 c -4.704,-8.173 -13.479,-13.25 -22.903,-13.25 -3.19,0 -6.326,0.573 -9.302,1.695 L 386.036,93.748 C 369.49,80.462 351.188,69.879 331.486,62.208 L 324.803,22.126 C 322.676,9.306 311.701,0 298.704,0 H 213.296 C 200.3,0 189.324,9.307 187.2,22.119 l -6.684,40.088 C 160.813,69.88 142.509,80.462 125.963,93.749 L 87.898,79.492 c -2.999,-1.138 -6.14,-1.715 -9.338,-1.715 -9.414,0 -18.191,5.074 -22.903,13.241 l -42.702,73.96 c -6.499,11.244 -3.935,25.403 6.097,33.664 l 31.394,25.855 c -1.58,10.4 -2.38,20.969 -2.38,31.503 0,10.534 0.8,21.103 2.38,31.503 l -31.394,25.856 c -10.032,8.262 -12.595,22.42 -6.099,33.66 l 42.703,73.963 c 4.716,8.171 13.492,13.247 22.904,13.247 3.205,0 6.352,-0.581 9.294,-1.703 l 38.107,-14.275 c 16.547,13.287 34.85,23.87 54.551,31.541 l 6.682,40.075 C 189.316,502.692 200.293,512 213.297,512 h 85.408 c 12.991,0 23.967,-9.304 26.096,-22.118 l 6.683,-40.089 c 19.705,-7.673 38.008,-18.255 54.554,-31.542 l 38.07,14.261 c 2.999,1.137 6.141,1.713 9.336,1.713 9.411,0 18.185,-5.074 22.9,-13.241 l 42.703,-73.962 c 6.496,-11.246 3.932,-25.403 -6.099,-33.665 z M 298.704,491.102 H 245.53 v -49.427 c 0,-5.771 -4.678,-10.449 -10.449,-10.449 -5.771,0 -10.449,4.678 -10.449,10.449 v 49.427 H 213.71 V 376.504 c 13.606,4.844 28.061,7.375 42.865,7.382 0.003,0 0.066,0 0.07,0 14.852,0 29.325,-2.528 42.928,-7.376 v 114.515 h 0.001 c -0.285,0.044 -0.574,0.077 -0.87,0.077 z M 256.642,362.988 h -0.057 c -58.964,-0.029 -106.933,-48.026 -106.932,-106.99 0.001,-34.314 16.175,-65.814 43.158,-85.745 v 76.229 c 0,3.671 1.926,7.072 5.073,8.96 l 53.381,32.027 c 3.309,1.984 7.443,1.984 10.752,0 l 53.381,-32.027 c 3.147,-1.889 5.073,-5.29 5.073,-8.96 v -76.229 c 26.983,19.931 43.159,51.432 43.157,85.747 0,28.528 -11.143,55.382 -31.374,75.614 -20.232,20.232 -47.085,31.374 -75.612,31.374 z m 224.307,-26.418 -42.705,73.965 c -1.326,2.296 -4.122,3.423 -6.769,2.42 l -43.772,-16.397 c -3.557,-1.331 -7.555,-0.63 -10.444,1.834 -16.925,14.428 -36.026,25.589 -56.79,33.212 v -64.779 c 9.585,-5.551 18.513,-12.386 26.56,-20.434 24.179,-24.18 37.495,-56.281 37.495,-90.391 10e-4,-48.242 -26.729,-91.831 -69.76,-113.754 -3.239,-1.651 -7.103,-1.498 -10.203,0.401 -3.099,1.9 -4.989,5.274 -4.989,8.909 v 89.011 l -42.932,25.759 -42.932,-25.759 v -89.011 c 0,-3.635 -1.89,-7.009 -4.989,-8.909 -3.099,-1.899 -6.963,-2.05 -10.203,-0.401 -43.03,21.922 -69.76,65.51 -69.762,113.752 -0.001,34.743 13.583,67.154 38.247,91.26 7.858,7.68 16.53,14.23 25.809,19.585 v 65.235 c -21.258,-7.63 -40.795,-18.958 -58.071,-33.684 -1.922,-1.638 -4.333,-2.497 -6.78,-2.497 -1.232,0 -2.473,0.217 -3.663,0.664 l -43.83,16.419 c -0.613,0.234 -1.255,0.353 -1.905,0.353 -1.969,0 -3.81,-1.071 -4.805,-2.796 L 31.05,336.569 c -1.365,-2.361 -0.822,-5.337 1.288,-7.076 L 68.389,299.8 c 2.926,-2.411 4.318,-6.216 3.635,-9.944 -2.03,-11.12 -3.061,-22.509 -3.061,-33.856 0,-11.346 1.03,-22.736 3.063,-33.854 0.681,-3.729 -0.709,-7.535 -3.636,-9.944 L 32.339,182.511 c -2.112,-1.74 -2.654,-4.716 -1.287,-7.08 l 42.705,-73.966 c 1.323,-2.294 4.109,-3.429 6.769,-2.419 l 43.772,16.396 c 3.555,1.33 7.554,0.63 10.444,-1.833 17.417,-14.847 37.129,-26.244 58.589,-33.876 3.576,-1.272 6.182,-4.382 6.805,-8.126 l 7.679,-46.059 c 0.446,-2.694 2.752,-4.649 5.482,-4.649 h 85.408 c 2.73,0 5.036,1.955 5.485,4.656 l 7.679,46.053 c 0.624,3.744 3.23,6.856 6.806,8.126 21.459,7.631 41.17,19.027 58.586,33.874 2.89,2.463 6.888,3.165 10.444,1.833 l 43.794,-16.405 c 0.631,-0.238 1.287,-0.358 1.95,-0.358 1.97,0 3.805,1.064 4.798,2.789 l 42.706,73.967 c 1.365,2.361 0.822,5.337 -1.288,7.076 l -36.052,29.692 c -2.926,2.411 -4.318,6.215 -3.635,9.944 2.03,11.118 3.061,22.509 3.061,33.855 0,11.346 -1.03,22.735 -3.063,33.853 -0.681,3.728 0.709,7.535 3.636,9.944 l 36.051,29.691 c 2.111,1.738 2.653,4.716 1.286,7.081 z"
         id="path938"
         style="fill:#ffffff;stroke:#000000" />
    </g>
    <path
       style="opacity:1;fill:#ffffff;stroke:#ffffff;stroke-width:9.60897;stroke-miterlimit:1;stop-color:#000000"
       d="m 236.44068,342.92075 v -26.9945 l 4.44915,1.2733 c 6.32026,1.80879 24.1436,1.81948 30.50848,0.0183 l 4.87288,-1.37897 v 27.03819 27.0382 h -12.28814 -12.28813 v -12.5233 c 0,-14.3628 -0.64191,-16.29026 -5.42519,-16.29026 -5.07185,0 -5.59176,1.48362 -5.59176,15.95656 v 12.857 h -2.11865 -2.11864 z M 250,334.32204 c 2.07041,-2.07042 2.26655,-7.28134 0.37568,-9.98093 -0.8831,-1.2608 -2.19186,-1.88348 -3.9587,-1.88348 -3.87698,0 -5.73901,2.10481 -5.73901,6.48728 0,4.27087 2.18185,7.07204 5.50847,7.07204 1.16526,0 2.88136,-0.76271 3.81356,-1.69491 z"
       id="path1877"
       transform="matrix(2.1044787,0,0,2.0480001,-282.74654,-268.28803)" />
  </g>
  <g
     id="g944"
     transform="matrix(0.04103249,0,0,0.04216406,-4.8512649,-0.20148736)" />
  <g
     id="g946"
     transform="matrix(0.04103249,0,0,0.04216406,-4.8512649,-0.20148736)" />
  <g
     id="g948"
     transform="matrix(0.04103249,0,0,0.04216406,-4.8512649,-0.20148736)" />
  <g
     id="g950"
     transform="matrix(0.04103249,0,0,0.04216406,-4.8512649,-0.20148736)" />
  <g
     id="g952"
     transform="matrix(0.04103249,0,0,0.04216406,-4.8512649,-0.20148736)" />
  <g
     id="g954"
     transform="matrix(0.04103249,0,0,0.04216406,-4.8512649,-0.20148736)" />
  <g
     id="g956"
     transform="matrix(0.04103249,0,0,0.04216406,-4.8512649,-0.20148736)" />
  <g
     id="g958"
     transform="matrix(0.04103249,0,0,0.04216406,-4.8512649,-0.20148736)" />
  <g
     id="g960"
     transform="matrix(0.04103249,0,0,0.04216406,-4.8512649,-0.20148736)" />
  <g
     id="g962"
     transform="matrix(0.04103249,0,0,0.04216406,-4.8512649,-0.20148736)" />
  <g
     id="g964"
     transform="matrix(0.04103249,0,0,0.04216406,-4.8512649,-0.20148736)" />
  <g
     id="g966"
     transform="matrix(0.04103249,0,0,0.04216406,-4.8512649,-0.20148736)" />
  <g
     id="g968"
     transform="matrix(0.04103249,0,0,0.04216406,-4.8512649,-0.20148736)" />
  <g
     id="g970"
     transform="matrix(0.04103249,0,0,0.04216406,-4.8512649,-0.20148736)" />
  <g
     id="g972"
     transform="matrix(0.04103249,0,0,0.04216406,-4.8512649,-0.20148736)" />
  <path
     style="opacity:1;fill:#ffffff;stroke:#ffffff;stroke-width:9.60897;stroke-miterlimit:1;stop-color:#000000"
     d="m 218.1124,337.72425 c -3.78818,-1.84881 -10.22476,-5.84944 -14.30351,-8.89031 -4.07875,-3.04087 -7.75263,-5.52885 -8.16418,-5.52885 -0.41155,0 -5.77226,1.92114 -11.91269,4.26921 -6.14044,2.34807 -11.70061,4.15951 -12.35594,4.02542 -1.44149,-0.29494 -22.20832,-37.06424 -21.65,-38.33303 0.21632,-0.4916 4.1968,-4.07904 8.84551,-7.9721 11.0652,-9.26656 11.16056,-9.42451 10.10375,-16.73574 -1.09544,-7.57853 -1.09265,-18.00904 0.007,-24.7836 0.47991,-2.95751 0.63738,-6.11827 0.34994,-7.02392 -0.28744,-0.90564 -4.59187,-5.12563 -9.5654,-9.37774 -4.97351,-4.25212 -9.29263,-8.14644 -9.59803,-8.65405 -0.60657,-1.00822 19.87871,-38.01379 21.30696,-38.48987 0.48309,-0.16104 6.05343,1.69424 12.37851,4.12283 13.12547,5.03969 12.06242,5.12866 21.14589,-1.76983 3.24137,-2.46167 9.81756,-6.3556 14.61375,-8.65316 4.79619,-2.29757 9.23684,-4.99874 9.8681,-6.0026 0.63126,-1.00387 1.81539,-6.40149 2.6314,-11.99471 0.81602,-5.59322 1.80025,-11.02754 2.1872,-12.07627 l 0.70354,-1.90678 h 21.22559 c 24.9423,0 21.95563,-1.79939 24.49862,14.75979 1.89097,12.31347 2.13208,12.71632 9.40249,15.70989 5.76532,2.37386 12.26218,6.25381 19.84636,11.85235 3.19497,2.35848 6.3003,4.28814 6.90073,4.28814 0.60044,0 6.08961,-1.94311 12.19818,-4.31802 6.10857,-2.37492 11.57153,-4.13021 12.13992,-3.90064 0.90239,0.36445 21.79617,36.80925 21.79617,38.01881 0,0.25375 -4.23028,4.0173 -9.40061,8.36345 -5.17033,4.34614 -9.72977,8.76786 -10.13209,9.82604 -0.41999,1.10468 -0.38863,4.01741 0.0736,6.84005 1.02192,6.23959 1.01526,18.54847 -0.0139,25.67008 -0.6199,4.28968 -0.53907,5.89002 0.36737,7.27342 0.63917,0.97551 5.20673,5.16622 10.15013,9.3127 6.22537,5.22179 8.8375,7.93532 8.49839,8.82827 -1.37533,3.6215 -20.45738,36.71538 -21.37871,37.07694 -0.59015,0.2316 -6.19429,-1.52489 -12.45365,-3.90331 -7.04032,-2.67517 -11.96392,-4.10474 -12.91003,-3.74845 -0.84117,0.31677 -4.07279,2.5056 -7.18138,4.86407 -5.58999,4.24109 -15.44579,9.92325 -19.13616,11.03256 l -1.90678,0.57317 v -14.84691 -14.8469 l 3.6488,-2.51045 c 27.48414,-18.90955 34.89639,-58.78585 16.24632,-87.40149 -6.46719,-9.9229 -20.00951,-21.18644 -25.47276,-21.18644 -5.24782,0 -5.38682,0.63655 -5.63699,25.81474 l -0.22601,22.74644 -9.32204,5.78255 c -5.12711,3.18041 -9.70339,5.78256 -10.16949,5.78256 -0.4661,0 -5.04237,-2.60215 -10.16949,-5.78256 l -9.32203,-5.78255 -0.22601,-22.74644 c -0.25105,-25.26641 -0.37299,-25.81474 -5.74097,-25.81474 -5.43768,0 -18.97711,11.15877 -25.5445,21.05295 -9.56766,14.4143 -12.87863,35.09002 -8.36753,52.25214 3.35355,12.75834 12.43651,26.22312 22.79091,33.78577 l 5.64742,4.12476 v 15.1549 c 0,8.3352 -0.0953,15.1513 -0.21186,15.14691 -0.11653,-0.004 -3.31129,-1.52066 -7.09947,-3.36945 z"
     id="path1434"
     transform="matrix(0.086352,0,0,0.086352,-16.453059,-11.5136)" />
</svg>
