<?xml version="1.0" encoding="UTF-8" standalone="no"?>
<svg
   height="512"
   width="512"
   viewBox="-6.659355 -11.5136 24.624815 44.212224"
   version="1.1"
   id="svg113"
   sodipodi:docname="app-navidrome.svg"
   inkscape:version="1.2 (dc2aedaf03, 2022-05-15)"
   xml:space="preserve"
   xmlns:inkscape="http://www.inkscape.org/namespaces/inkscape"
   xmlns:sodipodi="http://sodipodi.sourceforge.net/DTD/sodipodi-0.dtd"
   xmlns:xlink="http://www.w3.org/1999/xlink"
   xmlns="http://www.w3.org/2000/svg"
   xmlns:svg="http://www.w3.org/2000/svg"
   xmlns:rdf="http://www.w3.org/1999/02/22-rdf-syntax-ns#"
   xmlns:cc="http://creativecommons.org/ns#"
   xmlns:dc="http://purl.org/dc/elements/1.1/"><metadata
     id="metadata117"><rdf:RDF><cc:Work
         rdf:about=""><dc:format>image/svg+xml</dc:format><dc:type
           rdf:resource="http://purl.org/dc/dcmitype/StillImage" /></cc:Work></rdf:RDF></metadata><sodipodi:namedview
     pagecolor="#ffffff"
     bordercolor="#666666"
     borderopacity="1"
     objecttolerance="10"
     gridtolerance="10"
     guidetolerance="10"
     inkscape:pageopacity="0"
     inkscape:pageshadow="2"
     inkscape:window-width="2560"
     inkscape:window-height="1440"
     id="namedview115"
     showgrid="false"
     inkscape:zoom="1.18"
     inkscape:cx="117.37288"
     inkscape:cy="216.94915"
     inkscape:window-x="0"
     inkscape:window-y="0"
     inkscape:window-maximized="0"
     inkscape:current-layer="svg113"
     inkscape:snap-object-midpoints="false"
     inkscape:snap-bbox="true"
     inkscape:object-paths="true"
     inkscape:pagecheckerboard="0"
     inkscape:showpageshadow="2"
     inkscape:deskcolor="#d1d1d1" /><defs
     id="defs71"><linearGradient
       id="j"><stop
         offset="0"
         id="stop2" /><stop
         offset="1"
         stop-opacity="0"
         id="stop4" /></linearGradient><linearGradient
       id="i"><stop
         offset="0"
         stop-color="#f9f9f9"
         id="stop7" /><stop
         offset="1"
         stop-color="#eeeeec"
         stop-opacity=".6204"
         id="stop9" /></linearGradient><linearGradient
       id="h"><stop
         offset="0"
         stop-color="#787b76"
         id="stop12" /><stop
         offset=".8713"
         stop-color="#babcb9"
         id="stop14" /><stop
         offset="1"
         stop-color="#787b76"
         id="stop16" /></linearGradient><linearGradient
       id="f"><stop
         offset="0"
         stop-color="#fff"
         id="stop19" /><stop
         offset="1"
         stop-color="#fff"
         stop-opacity="0"
         id="stop21" /></linearGradient><linearGradient
       id="e"><stop
         offset="0"
         stop-color="#c00"
         id="stop24" /><stop
         offset=".3651"
         stop-color="#ef0000"
         id="stop26" /><stop
         offset="1"
         stop-color="#a00"
         id="stop28" /></linearGradient><linearGradient
       id="g"><stop
         offset="0"
         stop-color="#f0f2ef"
         id="stop31" /><stop
         offset="1"
         stop-color="#cdd1c8"
         id="stop33" /></linearGradient><linearGradient
       id="d"><stop
         offset="0"
         stop-color="#888a85"
         id="stop36" /><stop
         offset="1"
         stop-color="#2e3436"
         id="stop38" /></linearGradient><linearGradient
       id="c"><stop
         offset="0"
         stop-color="#555753"
         id="stop41" /><stop
         offset="1"
         stop-color="#2e3436"
         id="stop43" /></linearGradient><linearGradient
       id="b"><stop
         offset="0"
         stop-color="#2e3436"
         id="stop46" /><stop
         offset="1"
         stop-color="#2e3436"
         stop-opacity="0"
         id="stop48" /></linearGradient><linearGradient
       id="a"><stop
         offset="0"
         stop-color="#babdb6"
         id="stop51" /><stop
         offset=".133"
         stop-color="#eeeeec"
         id="stop53" /><stop
         offset="1"
         stop-color="#babdb6"
         id="stop55" /></linearGradient><linearGradient
       gradientUnits="userSpaceOnUse"
       y2="19.4657"
       x2="23.7386"
       y1="4.1566"
       x1="23.7386"
       id="t"
       xlink:href="#a"
       gradientTransform="matrix(0.47993647,0,0,0.47993647,-5.8407319,-1.9488837)" /><linearGradient
       gradientUnits="userSpaceOnUse"
       y2="22.6325"
       x2="23.688101"
       y1="30.057199"
       x1="23.7323"
       id="u"
       xlink:href="#b"
       gradientTransform="matrix(0.47993647,0,0,0.47993647,-5.8407319,-1.9488837)" /><linearGradient
       gradientUnits="userSpaceOnUse"
       y2="36.358002"
       x2="23.9375"
       y1="30.616899"
       x1="23.9375"
       id="n"
       xlink:href="#c"
       gradientTransform="matrix(0.47993647,0,0,0.47993647,-5.8407319,-1.9488837)" /><linearGradient
       gradientUnits="userSpaceOnUse"
       y2="23.939501"
       x2="20.563101"
       y1="32.248001"
       x1="20.771099"
       id="o"
       xlink:href="#d"
       gradientTransform="matrix(0.47993647,0,0,0.47993647,-5.8407319,-1.9488837)" /><linearGradient
       gradientUnits="userSpaceOnUse"
       y2="9"
       x2="14.8125"
       y1="5.6244001"
       x1="14.8125"
       id="p"
       xlink:href="#e"
       gradientTransform="matrix(0.47993647,0,0,0.47993647,-5.8407319,-1.9488837)" /><linearGradient
       gradientUnits="userSpaceOnUse"
       y2="10.0086"
       x2="24.040501"
       y1="5.0689998"
       x1="24.040501"
       id="q"
       xlink:href="#f"
       gradientTransform="matrix(0.47993647,0,0,0.47993647,-5.8407319,-1.9488837)" /><linearGradient
       gradientUnits="userSpaceOnUse"
       y2="24"
       x2="14.125"
       y1="33.125"
       x1="13.625"
       id="m"
       xlink:href="#g"
       gradientTransform="matrix(0.47993647,0,0,0.47993647,-5.8407319,-1.9488837)" /><linearGradient
       gradientUnits="userSpaceOnUse"
       y2="42.5"
       x2="10.1875"
       y1="20.25"
       x1="10.1875"
       id="l"
       xlink:href="#h"
       gradientTransform="matrix(0.47993647,0,0,0.47993647,-5.8407319,-1.9488837)" /><linearGradient
       gradientUnits="userSpaceOnUse"
       y2="17.0709"
       x2="23.936701"
       y1="35.958698"
       x1="24.7188"
       id="r"
       xlink:href="#i"
       gradientTransform="matrix(0.47993647,0,0,0.47993647,-5.8407319,-1.9488837)" /><linearGradient
       gradientUnits="userSpaceOnUse"
       y2="21.814301"
       x2="18.3125"
       y1="20.743799"
       x1="18.3125"
       id="s"
       xlink:href="#j"
       gradientTransform="matrix(0.47993647,0,0,0.47993647,-5.8407319,-1.9488837)" /><filter
       height="1.2799"
       y="-0.14"
       width="1.0595"
       x="-0.0298"
       id="k"><feGaussianBlur
         stdDeviation=".5197"
         id="feGaussianBlur68" /></filter><filter
       id="k-3"
       x="-0.0298"
       width="1.0595"
       y="-0.14"
       height="1.2799"><feGaussianBlur
         id="feGaussianBlur68-7"
         stdDeviation=".5197" /></filter><filter
       style="color-interpolation-filters:sRGB"
       inkscape:label="Drop Shadow"
       id="filter4682"
       x="-0.036552633"
       y="-0.04191637"
       width="1.0731053"
       height="1.0862779"><feFlood
         flood-opacity="0.498039"
         flood-color="rgb(0,0,0)"
         result="flood"
         id="feFlood4684" /><feComposite
         in="flood"
         in2="SourceGraphic"
         operator="in"
         result="composite1"
         id="feComposite4686" /><feGaussianBlur
         in="composite1"
         stdDeviation="5"
         result="blur"
         id="feGaussianBlur4688" /><feOffset
         dx="1.34615e-014"
         dy="0.7"
         result="offset"
         id="feOffset4690" /><feComposite
         in="SourceGraphic"
         in2="offset"
         operator="over"
         result="composite2"
         id="feComposite4692" /></filter></defs><g
     id="g944"
     transform="matrix(0.04103249,0,0,0.04216406,-4.8512649,-0.20148736)" /><g
     id="g946"
     transform="matrix(0.04103249,0,0,0.04216406,-4.8512649,-0.20148736)" /><g
     id="g948"
     transform="matrix(0.04103249,0,0,0.04216406,-4.8512649,-0.20148736)" /><g
     id="g950"
     transform="matrix(0.04103249,0,0,0.04216406,-4.8512649,-0.20148736)" /><g
     id="g952"
     transform="matrix(0.04103249,0,0,0.04216406,-4.8512649,-0.20148736)" /><g
     id="g954"
     transform="matrix(0.04103249,0,0,0.04216406,-4.8512649,-0.20148736)" /><g
     id="g956"
     transform="matrix(0.04103249,0,0,0.04216406,-4.8512649,-0.20148736)" /><g
     id="g958"
     transform="matrix(0.04103249,0,0,0.04216406,-4.8512649,-0.20148736)" /><g
     id="g960"
     transform="matrix(0.04103249,0,0,0.04216406,-4.8512649,-0.20148736)" /><g
     id="g962"
     transform="matrix(0.04103249,0,0,0.04216406,-4.8512649,-0.20148736)" /><g
     id="g964"
     transform="matrix(0.04103249,0,0,0.04216406,-4.8512649,-0.20148736)" /><g
     id="g966"
     transform="matrix(0.04103249,0,0,0.04216406,-4.8512649,-0.20148736)" /><g
     id="g968"
     transform="matrix(0.04103249,0,0,0.04216406,-4.8512649,-0.20148736)" /><g
     id="g970"
     transform="matrix(0.04103249,0,0,0.04216406,-4.8512649,-0.20148736)" /><g
     id="g972"
     transform="matrix(0.04103249,0,0,0.04216406,-4.8512649,-0.20148736)" /><g
     id="g156"
     transform="matrix(0.04216406,0,0,0.04216406,-5.1409469,-0.20148736)"><path
       style="fill:#0084ff"
       d="M 256,10.449 C 120.275,10.449 10.449,120.276 10.449,256 10.449,391.725 120.275,501.551 256,501.551 391.725,501.551 501.551,391.725 501.551,256 501.551,120.276 391.725,10.449 256,10.449 Z"
       id="path118" /><path
       style="fill:#ffffff"
       d="m 256,168.229 c -48.515,0 -87.771,39.257 -87.771,87.771 0,48.514 39.257,87.771 87.771,87.771 48.514,0 87.771,-39.257 87.771,-87.771 0,-48.514 -39.256,-87.771 -87.771,-87.771 z"
       id="path120" /><path
       d="M 437.061,74.94 C 388.735,26.615 324.434,0 256,0 187.566,0 123.265,26.615 74.939,74.94 26.613,123.265 0,187.566 0,256 0,324.434 26.614,388.735 74.939,437.061 123.264,485.387 187.566,512 256,512 324.434,512 388.735,485.386 437.061,437.061 485.387,388.736 512,324.434 512,256 512,187.566 485.386,123.266 437.061,74.94 Z M 256,491.102 C 126.365,491.102 20.898,385.635 20.898,256 20.898,126.365 126.365,20.898 256,20.898 385.635,20.898 491.102,126.365 491.102,256 491.102,385.635 385.635,491.102 256,491.102 Z"
       id="path122" /><path
       d="m 354.22,256 c 0,-54.158 -44.061,-98.22 -98.22,-98.22 -54.159,0 -98.22,44.062 -98.22,98.22 0,54.158 44.062,98.22 98.22,98.22 54.158,0 98.22,-44.061 98.22,-98.22 z m -175.542,0 c 0,-42.636 34.686,-77.322 77.322,-77.322 42.636,0 77.322,34.686 77.322,77.322 0,42.636 -34.686,77.322 -77.322,77.322 -42.636,0 -77.322,-34.686 -77.322,-77.322 z"
       id="path124" /><path
       d="m 285.257,256 c 0,-16.132 -13.124,-29.257 -29.257,-29.257 -16.133,0 -29.257,13.125 -29.257,29.257 0,16.132 13.125,29.257 29.257,29.257 16.132,0 29.257,-13.124 29.257,-29.257 z m -37.616,0 c 0,-4.609 3.75,-8.359 8.359,-8.359 4.609,0 8.359,3.75 8.359,8.359 0,4.609 -3.75,8.359 -8.359,8.359 -4.609,0 -8.359,-3.75 -8.359,-8.359 z"
       id="path126" /><path
       d="m 256,391.837 c -5.771,0 -10.449,4.678 -10.449,10.449 0,5.771 4.678,10.449 10.449,10.449 41.897,0 81.265,-16.294 110.853,-45.883 29.587,-29.587 45.881,-68.955 45.881,-110.852 0,-5.771 -4.678,-10.449 -10.449,-10.449 -5.771,0 -10.449,4.678 -10.449,10.449 C 391.837,330.9 330.9,391.837 256,391.837 Z"
       id="path128" /><path
       d="m 449.306,245.551 c -5.771,0 -10.449,4.678 -10.449,10.449 0,1.481 -0.018,2.958 -0.052,4.43 -0.136,5.769 4.43,10.557 10.199,10.692 0.085,0.002 0.168,0.003 0.252,0.003 5.656,0 10.307,-4.517 10.442,-10.202 0.039,-1.637 0.059,-3.279 0.059,-4.925 -0.002,-5.769 -4.68,-10.447 -10.451,-10.447 z"
       id="path130" /><path
       d="m 447.55,284.239 c -5.656,-1.145 -11.168,2.52 -12.308,8.178 -17.107,84.854 -92.489,146.44 -179.242,146.44 -5.771,0 -10.449,4.678 -10.449,10.449 0,5.771 4.678,10.449 10.449,10.449 47.353,0 93.467,-16.573 129.847,-46.668 35.9,-29.697 60.717,-71.084 69.881,-116.54 1.14,-5.656 -2.521,-11.167 -8.178,-12.308 z"
       id="path132" /><path
       d="m 256,120.163 c 5.771,0 10.449,-4.678 10.449,-10.449 0,-5.771 -4.678,-10.449 -10.449,-10.449 -41.897,0 -81.265,16.294 -110.853,45.883 -29.588,29.587 -45.882,68.955 -45.882,110.852 0,5.771 4.678,10.449 10.449,10.449 5.771,0 10.449,-4.678 10.449,-10.449 0,-74.9 60.937,-135.837 135.837,-135.837 z"
       id="path134" /><path
       d="m 62.996,240.876 c -5.759,-0.14 -10.557,4.43 -10.692,10.199 -0.039,1.637 -0.059,3.279 -0.059,4.925 0,5.771 4.678,10.449 10.449,10.449 5.771,0 10.449,-4.678 10.449,-10.449 0,-1.481 0.018,-2.958 0.052,-4.43 0.136,-5.77 -4.43,-10.557 -10.199,-10.694 z"
       id="path136" /><path
       d="m 256,73.143 c 5.771,0 10.449,-4.678 10.449,-10.449 0,-5.771 -4.678,-10.449 -10.449,-10.449 -47.353,0 -93.467,16.573 -129.847,46.668 -35.9,29.697 -60.717,71.084 -69.881,116.54 -1.14,5.657 2.521,11.168 8.178,12.308 0.697,0.141 1.392,0.208 2.076,0.208 4.872,0 9.232,-3.426 10.232,-8.386 C 93.864,134.729 169.247,73.143 256,73.143 Z"
       id="path138" /></g></svg>
