<?xml version="1.0" encoding="UTF-8" standalone="no"?>
<svg
   height="512"
   width="512"
   viewBox="-6.659355 -11.5136 24.624815 44.212224"
   version="1.1"
   id="svg113"
   sodipodi:docname="admin-expense.svg"
   inkscape:version="1.1.1 (3bf5ae0d25, 2021-09-20, custom)"
   xmlns:inkscape="http://www.inkscape.org/namespaces/inkscape"
   xmlns:sodipodi="http://sodipodi.sourceforge.net/DTD/sodipodi-0.dtd"
   xmlns:xlink="http://www.w3.org/1999/xlink"
   xmlns="http://www.w3.org/2000/svg"
   xmlns:svg="http://www.w3.org/2000/svg"
   xmlns:rdf="http://www.w3.org/1999/02/22-rdf-syntax-ns#"
   xmlns:cc="http://creativecommons.org/ns#"
   xmlns:dc="http://purl.org/dc/elements/1.1/">
  <metadata
     id="metadata117">
    <rdf:RDF>
      <cc:Work
         rdf:about="">
        <dc:format>image/svg+xml</dc:format>
        <dc:type
           rdf:resource="http://purl.org/dc/dcmitype/StillImage" />
      </cc:Work>
    </rdf:RDF>
  </metadata>
  <sodipodi:namedview
     pagecolor="#ffffff"
     bordercolor="#666666"
     borderopacity="1"
     objecttolerance="10"
     gridtolerance="10"
     guidetolerance="10"
     inkscape:pageopacity="0"
     inkscape:pageshadow="2"
     inkscape:window-width="2560"
     inkscape:window-height="1440"
     id="namedview115"
     showgrid="false"
     inkscape:zoom="1.18"
     inkscape:cx="250.84746"
     inkscape:cy="-54.237288"
     inkscape:window-x="0"
     inkscape:window-y="0"
     inkscape:window-maximized="0"
     inkscape:current-layer="svg113"
     inkscape:snap-object-midpoints="false"
     inkscape:snap-bbox="true"
     inkscape:object-paths="true"
     inkscape:pagecheckerboard="0" />
  <defs
     id="defs71">
    <linearGradient
       id="j">
      <stop
         offset="0"
         id="stop2" />
      <stop
         offset="1"
         stop-opacity="0"
         id="stop4" />
    </linearGradient>
    <linearGradient
       id="i">
      <stop
         offset="0"
         stop-color="#f9f9f9"
         id="stop7" />
      <stop
         offset="1"
         stop-color="#eeeeec"
         stop-opacity=".6204"
         id="stop9" />
    </linearGradient>
    <linearGradient
       id="h">
      <stop
         offset="0"
         stop-color="#787b76"
         id="stop12" />
      <stop
         offset=".8713"
         stop-color="#babcb9"
         id="stop14" />
      <stop
         offset="1"
         stop-color="#787b76"
         id="stop16" />
    </linearGradient>
    <linearGradient
       id="f">
      <stop
         offset="0"
         stop-color="#fff"
         id="stop19" />
      <stop
         offset="1"
         stop-color="#fff"
         stop-opacity="0"
         id="stop21" />
    </linearGradient>
    <linearGradient
       id="e">
      <stop
         offset="0"
         stop-color="#c00"
         id="stop24" />
      <stop
         offset=".3651"
         stop-color="#ef0000"
         id="stop26" />
      <stop
         offset="1"
         stop-color="#a00"
         id="stop28" />
    </linearGradient>
    <linearGradient
       id="g">
      <stop
         offset="0"
         stop-color="#f0f2ef"
         id="stop31" />
      <stop
         offset="1"
         stop-color="#cdd1c8"
         id="stop33" />
    </linearGradient>
    <linearGradient
       id="d">
      <stop
         offset="0"
         stop-color="#888a85"
         id="stop36" />
      <stop
         offset="1"
         stop-color="#2e3436"
         id="stop38" />
    </linearGradient>
    <linearGradient
       id="c">
      <stop
         offset="0"
         stop-color="#555753"
         id="stop41" />
      <stop
         offset="1"
         stop-color="#2e3436"
         id="stop43" />
    </linearGradient>
    <linearGradient
       id="b">
      <stop
         offset="0"
         stop-color="#2e3436"
         id="stop46" />
      <stop
         offset="1"
         stop-color="#2e3436"
         stop-opacity="0"
         id="stop48" />
    </linearGradient>
    <linearGradient
       id="a">
      <stop
         offset="0"
         stop-color="#babdb6"
         id="stop51" />
      <stop
         offset=".133"
         stop-color="#eeeeec"
         id="stop53" />
      <stop
         offset="1"
         stop-color="#babdb6"
         id="stop55" />
    </linearGradient>
    <linearGradient
       gradientUnits="userSpaceOnUse"
       y2="19.4657"
       x2="23.7386"
       y1="4.1566"
       x1="23.7386"
       id="t"
       xlink:href="#a"
       gradientTransform="matrix(0.47993647,0,0,0.47993647,-5.8407319,-1.9488837)" />
    <linearGradient
       gradientUnits="userSpaceOnUse"
       y2="22.6325"
       x2="23.688101"
       y1="30.057199"
       x1="23.7323"
       id="u"
       xlink:href="#b"
       gradientTransform="matrix(0.47993647,0,0,0.47993647,-5.8407319,-1.9488837)" />
    <linearGradient
       gradientUnits="userSpaceOnUse"
       y2="36.358002"
       x2="23.9375"
       y1="30.616899"
       x1="23.9375"
       id="n"
       xlink:href="#c"
       gradientTransform="matrix(0.47993647,0,0,0.47993647,-5.8407319,-1.9488837)" />
    <linearGradient
       gradientUnits="userSpaceOnUse"
       y2="23.939501"
       x2="20.563101"
       y1="32.248001"
       x1="20.771099"
       id="o"
       xlink:href="#d"
       gradientTransform="matrix(0.47993647,0,0,0.47993647,-5.8407319,-1.9488837)" />
    <linearGradient
       gradientUnits="userSpaceOnUse"
       y2="9"
       x2="14.8125"
       y1="5.6244001"
       x1="14.8125"
       id="p"
       xlink:href="#e"
       gradientTransform="matrix(0.47993647,0,0,0.47993647,-5.8407319,-1.9488837)" />
    <linearGradient
       gradientUnits="userSpaceOnUse"
       y2="10.0086"
       x2="24.040501"
       y1="5.0689998"
       x1="24.040501"
       id="q"
       xlink:href="#f"
       gradientTransform="matrix(0.47993647,0,0,0.47993647,-5.8407319,-1.9488837)" />
    <linearGradient
       gradientUnits="userSpaceOnUse"
       y2="24"
       x2="14.125"
       y1="33.125"
       x1="13.625"
       id="m"
       xlink:href="#g"
       gradientTransform="matrix(0.47993647,0,0,0.47993647,-5.8407319,-1.9488837)" />
    <linearGradient
       gradientUnits="userSpaceOnUse"
       y2="42.5"
       x2="10.1875"
       y1="20.25"
       x1="10.1875"
       id="l"
       xlink:href="#h"
       gradientTransform="matrix(0.47993647,0,0,0.47993647,-5.8407319,-1.9488837)" />
    <linearGradient
       gradientUnits="userSpaceOnUse"
       y2="17.0709"
       x2="23.936701"
       y1="35.958698"
       x1="24.7188"
       id="r"
       xlink:href="#i"
       gradientTransform="matrix(0.47993647,0,0,0.47993647,-5.8407319,-1.9488837)" />
    <linearGradient
       gradientUnits="userSpaceOnUse"
       y2="21.814301"
       x2="18.3125"
       y1="20.743799"
       x1="18.3125"
       id="s"
       xlink:href="#j"
       gradientTransform="matrix(0.47993647,0,0,0.47993647,-5.8407319,-1.9488837)" />
    <filter
       height="1.2799"
       y="-0.14"
       width="1.0595"
       x="-0.0298"
       id="k">
      <feGaussianBlur
         stdDeviation=".5197"
         id="feGaussianBlur68" />
    </filter>
    <filter
       id="k-3"
       x="-0.0298"
       width="1.0595"
       y="-0.14"
       height="1.2799">
      <feGaussianBlur
         id="feGaussianBlur68-7"
         stdDeviation=".5197" />
    </filter>
  </defs>
  <g
     id="g944"
     transform="matrix(0.04103249,0,0,0.04216406,-4.8512649,-0.20148736)" />
  <g
     id="g946"
     transform="matrix(0.04103249,0,0,0.04216406,-4.8512649,-0.20148736)" />
  <g
     id="g948"
     transform="matrix(0.04103249,0,0,0.04216406,-4.8512649,-0.20148736)" />
  <g
     id="g950"
     transform="matrix(0.04103249,0,0,0.04216406,-4.8512649,-0.20148736)" />
  <g
     id="g952"
     transform="matrix(0.04103249,0,0,0.04216406,-4.8512649,-0.20148736)" />
  <g
     id="g954"
     transform="matrix(0.04103249,0,0,0.04216406,-4.8512649,-0.20148736)" />
  <g
     id="g956"
     transform="matrix(0.04103249,0,0,0.04216406,-4.8512649,-0.20148736)" />
  <g
     id="g958"
     transform="matrix(0.04103249,0,0,0.04216406,-4.8512649,-0.20148736)" />
  <g
     id="g960"
     transform="matrix(0.04103249,0,0,0.04216406,-4.8512649,-0.20148736)" />
  <g
     id="g962"
     transform="matrix(0.04103249,0,0,0.04216406,-4.8512649,-0.20148736)" />
  <g
     id="g964"
     transform="matrix(0.04103249,0,0,0.04216406,-4.8512649,-0.20148736)" />
  <g
     id="g966"
     transform="matrix(0.04103249,0,0,0.04216406,-4.8512649,-0.20148736)" />
  <g
     id="g968"
     transform="matrix(0.04103249,0,0,0.04216406,-4.8512649,-0.20148736)" />
  <g
     id="g970"
     transform="matrix(0.04103249,0,0,0.04216406,-4.8512649,-0.20148736)" />
  <g
     id="g972"
     transform="matrix(0.04103249,0,0,0.04216406,-4.8512649,-0.20148736)" />
  <g
     id="g1193"
     transform="matrix(0.086352,0,0,0.05464121,-8.5946821,1.5769582)"
     style="fill:#ffffff">
    <path
       id="XMLID_462_"
       d="m 179.996,151.501 v -88.93 c 17.458,6.192 30,22.865 30,42.42 0,8.284 6.716,15 15,15 8.284,0 15,-6.716 15,-15 0,-36.219 -25.808,-66.523 -60,-73.491 V 15 c 0,-8.284 -6.716,-15 -15,-15 -8.284,0 -15,6.716 -15,15 v 16.5 c -34.192,6.968 -60,37.272 -60,73.491 0,36.219 25.808,66.522 60,73.491 v 88.929 c -17.459,-6.192 -30,-22.865 -30,-42.42 0,-8.284 -6.716,-15 -15,-15 -8.284,0 -15,6.716 -15,15 0,36.219 25.808,66.523 60,73.491 v 16.509 c 0,8.284 6.716,15 15,15 8.284,0 15,-6.716 15,-15 v -16.509 c 34.192,-6.968 60,-37.272 60,-73.491 0,-36.219 -25.809,-66.522 -60,-73.49 z m -60,-46.51 c 0,-19.555 12.541,-36.228 30,-42.42 v 84.84 c -17.459,-6.192 -30,-22.865 -30,-42.42 z m 60,162.42 v -84.84 c 17.458,6.192 30,22.865 30,42.42 0,19.555 -12.542,36.228 -30,42.42 z"
       style="fill:#ffffff" />
    <g
       id="g1142"
       style="fill:#ffffff">
</g>
    <g
       id="g1144"
       style="fill:#ffffff">
</g>
    <g
       id="g1146"
       style="fill:#ffffff">
</g>
    <g
       id="g1148"
       style="fill:#ffffff">
</g>
    <g
       id="g1150"
       style="fill:#ffffff">
</g>
    <g
       id="g1152"
       style="fill:#ffffff">
</g>
    <g
       id="g1154"
       style="fill:#ffffff">
</g>
    <g
       id="g1156"
       style="fill:#ffffff">
</g>
    <g
       id="g1158"
       style="fill:#ffffff">
</g>
    <g
       id="g1160"
       style="fill:#ffffff">
</g>
    <g
       id="g1162"
       style="fill:#ffffff">
</g>
    <g
       id="g1164"
       style="fill:#ffffff">
</g>
    <g
       id="g1166"
       style="fill:#ffffff">
</g>
    <g
       id="g1168"
       style="fill:#ffffff">
</g>
    <g
       id="g1170"
       style="fill:#ffffff">
</g>
  </g>
</svg>
