<?xml version="1.0" encoding="UTF-8" standalone="no"?>
<svg
   height="512"
   width="512"
   viewBox="-6.659355 -11.5136 24.624815 44.212224"
   version="1.1"
   id="svg113"
   sodipodi:docname="app-portainer.svg"
   inkscape:version="1.1.1 (3bf5ae0d25, 2021-09-20, custom)"
   xmlns:inkscape="http://www.inkscape.org/namespaces/inkscape"
   xmlns:sodipodi="http://sodipodi.sourceforge.net/DTD/sodipodi-0.dtd"
   xmlns:xlink="http://www.w3.org/1999/xlink"
   xmlns="http://www.w3.org/2000/svg"
   xmlns:svg="http://www.w3.org/2000/svg"
   xmlns:rdf="http://www.w3.org/1999/02/22-rdf-syntax-ns#"
   xmlns:cc="http://creativecommons.org/ns#"
   xmlns:dc="http://purl.org/dc/elements/1.1/">
  <metadata
     id="metadata117">
    <rdf:RDF>
      <cc:Work
         rdf:about="">
        <dc:format>image/svg+xml</dc:format>
        <dc:type
           rdf:resource="http://purl.org/dc/dcmitype/StillImage" />
      </cc:Work>
    </rdf:RDF>
  </metadata>
  <sodipodi:namedview
     pagecolor="#ffffff"
     bordercolor="#666666"
     borderopacity="1"
     objecttolerance="10"
     gridtolerance="10"
     guidetolerance="10"
     inkscape:pageopacity="0"
     inkscape:pageshadow="2"
     inkscape:window-width="1265"
     inkscape:window-height="1420"
     id="namedview115"
     showgrid="false"
     inkscape:zoom="0.59"
     inkscape:cx="390.67797"
     inkscape:cy="598.30508"
     inkscape:window-x="1285"
     inkscape:window-y="10"
     inkscape:window-maximized="0"
     inkscape:current-layer="g1162"
     inkscape:snap-object-midpoints="false"
     inkscape:snap-bbox="true"
     inkscape:object-paths="true"
     inkscape:pagecheckerboard="0" />
  <defs
     id="defs71">
    <linearGradient
       id="j">
      <stop
         offset="0"
         id="stop2" />
      <stop
         offset="1"
         stop-opacity="0"
         id="stop4" />
    </linearGradient>
    <linearGradient
       id="i">
      <stop
         offset="0"
         stop-color="#f9f9f9"
         id="stop7" />
      <stop
         offset="1"
         stop-color="#eeeeec"
         stop-opacity=".6204"
         id="stop9" />
    </linearGradient>
    <linearGradient
       id="h">
      <stop
         offset="0"
         stop-color="#787b76"
         id="stop12" />
      <stop
         offset=".8713"
         stop-color="#babcb9"
         id="stop14" />
      <stop
         offset="1"
         stop-color="#787b76"
         id="stop16" />
    </linearGradient>
    <linearGradient
       id="f">
      <stop
         offset="0"
         stop-color="#fff"
         id="stop19" />
      <stop
         offset="1"
         stop-color="#fff"
         stop-opacity="0"
         id="stop21" />
    </linearGradient>
    <linearGradient
       id="e">
      <stop
         offset="0"
         stop-color="#c00"
         id="stop24" />
      <stop
         offset=".3651"
         stop-color="#ef0000"
         id="stop26" />
      <stop
         offset="1"
         stop-color="#a00"
         id="stop28" />
    </linearGradient>
    <linearGradient
       id="g">
      <stop
         offset="0"
         stop-color="#f0f2ef"
         id="stop31" />
      <stop
         offset="1"
         stop-color="#cdd1c8"
         id="stop33" />
    </linearGradient>
    <linearGradient
       id="d">
      <stop
         offset="0"
         stop-color="#888a85"
         id="stop36" />
      <stop
         offset="1"
         stop-color="#2e3436"
         id="stop38" />
    </linearGradient>
    <linearGradient
       id="c">
      <stop
         offset="0"
         stop-color="#555753"
         id="stop41" />
      <stop
         offset="1"
         stop-color="#2e3436"
         id="stop43" />
    </linearGradient>
    <linearGradient
       id="b">
      <stop
         offset="0"
         stop-color="#2e3436"
         id="stop46" />
      <stop
         offset="1"
         stop-color="#2e3436"
         stop-opacity="0"
         id="stop48" />
    </linearGradient>
    <linearGradient
       id="a">
      <stop
         offset="0"
         stop-color="#babdb6"
         id="stop51" />
      <stop
         offset=".133"
         stop-color="#eeeeec"
         id="stop53" />
      <stop
         offset="1"
         stop-color="#babdb6"
         id="stop55" />
    </linearGradient>
    <linearGradient
       gradientUnits="userSpaceOnUse"
       y2="19.4657"
       x2="23.7386"
       y1="4.1566"
       x1="23.7386"
       id="t"
       xlink:href="#a"
       gradientTransform="matrix(0.47993647,0,0,0.47993647,-5.8407319,-1.9488837)" />
    <linearGradient
       gradientUnits="userSpaceOnUse"
       y2="22.6325"
       x2="23.688101"
       y1="30.057199"
       x1="23.7323"
       id="u"
       xlink:href="#b"
       gradientTransform="matrix(0.47993647,0,0,0.47993647,-5.8407319,-1.9488837)" />
    <linearGradient
       gradientUnits="userSpaceOnUse"
       y2="36.358002"
       x2="23.9375"
       y1="30.616899"
       x1="23.9375"
       id="n"
       xlink:href="#c"
       gradientTransform="matrix(0.47993647,0,0,0.47993647,-5.8407319,-1.9488837)" />
    <linearGradient
       gradientUnits="userSpaceOnUse"
       y2="23.939501"
       x2="20.563101"
       y1="32.248001"
       x1="20.771099"
       id="o"
       xlink:href="#d"
       gradientTransform="matrix(0.47993647,0,0,0.47993647,-5.8407319,-1.9488837)" />
    <linearGradient
       gradientUnits="userSpaceOnUse"
       y2="9"
       x2="14.8125"
       y1="5.6244001"
       x1="14.8125"
       id="p"
       xlink:href="#e"
       gradientTransform="matrix(0.47993647,0,0,0.47993647,-5.8407319,-1.9488837)" />
    <linearGradient
       gradientUnits="userSpaceOnUse"
       y2="10.0086"
       x2="24.040501"
       y1="5.0689998"
       x1="24.040501"
       id="q"
       xlink:href="#f"
       gradientTransform="matrix(0.47993647,0,0,0.47993647,-5.8407319,-1.9488837)" />
    <linearGradient
       gradientUnits="userSpaceOnUse"
       y2="24"
       x2="14.125"
       y1="33.125"
       x1="13.625"
       id="m"
       xlink:href="#g"
       gradientTransform="matrix(0.47993647,0,0,0.47993647,-5.8407319,-1.9488837)" />
    <linearGradient
       gradientUnits="userSpaceOnUse"
       y2="42.5"
       x2="10.1875"
       y1="20.25"
       x1="10.1875"
       id="l"
       xlink:href="#h"
       gradientTransform="matrix(0.47993647,0,0,0.47993647,-5.8407319,-1.9488837)" />
    <linearGradient
       gradientUnits="userSpaceOnUse"
       y2="17.0709"
       x2="23.936701"
       y1="35.958698"
       x1="24.7188"
       id="r"
       xlink:href="#i"
       gradientTransform="matrix(0.47993647,0,0,0.47993647,-5.8407319,-1.9488837)" />
    <linearGradient
       gradientUnits="userSpaceOnUse"
       y2="21.814301"
       x2="18.3125"
       y1="20.743799"
       x1="18.3125"
       id="s"
       xlink:href="#j"
       gradientTransform="matrix(0.47993647,0,0,0.47993647,-5.8407319,-1.9488837)" />
    <filter
       height="1.2799"
       y="-0.14"
       width="1.0595"
       x="-0.0298"
       id="k">
      <feGaussianBlur
         stdDeviation=".5197"
         id="feGaussianBlur68" />
    </filter>
    <filter
       id="k-3"
       x="-0.0298"
       width="1.0595"
       y="-0.14"
       height="1.2799">
      <feGaussianBlur
         id="feGaussianBlur68-7"
         stdDeviation=".5197" />
    </filter>
  </defs>
  <g
     id="g944"
     transform="matrix(0.04103249,0,0,0.04216406,-4.8512649,-0.20148736)" />
  <g
     id="g946"
     transform="matrix(0.04103249,0,0,0.04216406,-4.8512649,-0.20148736)" />
  <g
     id="g948"
     transform="matrix(0.04103249,0,0,0.04216406,-4.8512649,-0.20148736)" />
  <g
     id="g950"
     transform="matrix(0.04103249,0,0,0.04216406,-4.8512649,-0.20148736)" />
  <g
     id="g952"
     transform="matrix(0.04103249,0,0,0.04216406,-4.8512649,-0.20148736)" />
  <g
     id="g954"
     transform="matrix(0.04103249,0,0,0.04216406,-4.8512649,-0.20148736)" />
  <g
     id="g956"
     transform="matrix(0.04103249,0,0,0.04216406,-4.8512649,-0.20148736)" />
  <g
     id="g958"
     transform="matrix(0.04103249,0,0,0.04216406,-4.8512649,-0.20148736)" />
  <g
     id="g960"
     transform="matrix(0.04103249,0,0,0.04216406,-4.8512649,-0.20148736)" />
  <g
     id="g962"
     transform="matrix(0.04103249,0,0,0.04216406,-4.8512649,-0.20148736)" />
  <g
     id="g964"
     transform="matrix(0.04103249,0,0,0.04216406,-4.8512649,-0.20148736)" />
  <g
     id="g966"
     transform="matrix(0.04103249,0,0,0.04216406,-4.8512649,-0.20148736)" />
  <g
     id="g968"
     transform="matrix(0.04103249,0,0,0.04216406,-4.8512649,-0.20148736)" />
  <g
     id="g970"
     transform="matrix(0.04103249,0,0,0.04216406,-4.8512649,-0.20148736)" />
  <g
     id="g972"
     transform="matrix(0.04103249,0,0,0.04216406,-4.8512649,-0.20148736)" />
  <g
     id="g1162"
     transform="matrix(0.63373441,0,0,0.67594257,-4.4866981,-0.22256912)"
     style="fill:#ffffff">
    <path
       id="docker_1_"
       d="m 12.75,22 c 0,0.414 -0.336,0.75 -0.75,0.75 -0.414,0 -0.75,-0.336 -0.75,-0.75 0,-0.414 0.336,-0.75 0.75,-0.75 0.414,0 0.75,0.336 0.75,0.75 z m 15.064,-4.74 h 0.215 c 1.345,0 2.603,-0.719 3.281,-1.875 0.066,-0.112 0.066,-0.252 0,-0.364 -0.613,-1.044 -1.664,-1.718 -2.857,-1.848 -0.111,-1.225 -0.83,-2.331 -1.932,-2.939 -0.107,-0.061 -0.239,-0.061 -0.349,0 -1.2,0.665 -1.946,1.919 -1.946,3.273 0,0.768 0.241,1.514 0.679,2.138 H 22.36 V 12 c 0,-0.199 -0.161,-0.36 -0.36,-0.36 H 18.36 V 4 C 18.36,3.801 18.199,3.64 18,3.64 H 14 C 13.801,3.64 13.64,3.801 13.64,4 V 7.64 H 10 C 9.801,7.64 9.64,7.801 9.64,8 v 3.64 H 6 c -0.199,0 -0.36,0.161 -0.36,0.36 v 3.642 H 1 v 0 c -0.096,0 -0.187,0.038 -0.254,0.105 -0.068,0.067 -0.105,0.159 -0.105,0.254 v 0.898 c 0,2.826 1.148,5.394 3.011,7.277 0.033,0.058 0.081,0.105 0.139,0.138 1.929,1.882 4.586,3.046 7.516,3.046 8.837,0 15.814,-5.913 16.507,-10.1 z M 10.047,23.647 C 10.237,23.59 10.346,23.39 10.29,23.2 10.234,23.01 10.034,22.899 9.842,22.958 8.417,23.381 6.343,23.628 4.132,23.64 2.416,21.889 1.36,19.513 1.36,16.9 v -0.539 l 24.34,0.003 v 0 c 0.148,0 0.282,-0.091 0.336,-0.23 0.054,-0.139 0.017,-0.296 -0.094,-0.396 -0.633,-0.574 -0.995,-1.387 -0.995,-2.231 0,-1.026 0.531,-1.981 1.4,-2.54 0.869,0.558 1.4,1.513 1.4,2.54 v 0.004 c 0,0.196 0.156,0.355 0.353,0.36 1.005,0.022 1.915,0.517 2.474,1.333 -0.57,0.83 -1.526,1.337 -2.545,1.337 h -0.531 c -0.187,0 -0.343,0.143 -0.358,0.329 -0.337,3.844 -7.287,9.771 -15.834,9.771 -2.438,0 -4.673,-0.863 -6.404,-2.294 1.987,-0.06 3.825,-0.308 5.145,-0.7 z M 18.36,12.36 h 3.279 v 3.28 H 18.36 Z m -4,0 h 3.28 v 3.28 h -3.28 z m -4,0 h 3.28 v 3.28 h -3.28 z m -4,0 h 3.28 v 3.28 H 6.36 Z m 8,-4 h 3.28 v 3.28 h -3.28 z m -4,0 h 3.28 v 3.28 h -3.28 z m 4,-4 h 3.28 v 3.28 h -3.28 z"
       style="fill:#ffffff" />
    <g
       id="g1637"
       transform="matrix(1.03125,0,0,1.03125,-0.49999994,-0.5)">
      <path
         id="docker_1_-5"
         d="m 12.75,22 c 0,0.414 -0.336,0.75 -0.75,0.75 -0.414,0 -0.75,-0.336 -0.75,-0.75 0,-0.414 0.336,-0.75 0.75,-0.75 0.414,0 0.75,0.336 0.75,0.75 z m 15.064,-4.74 h 0.215 c 1.345,0 2.603,-0.719 3.281,-1.875 0.066,-0.112 0.066,-0.252 0,-0.364 -0.613,-1.044 -1.664,-1.718 -2.857,-1.848 -0.111,-1.225 -0.83,-2.331 -1.932,-2.939 -0.107,-0.061 -0.239,-0.061 -0.349,0 -1.2,0.665 -1.946,1.919 -1.946,3.273 0,0.768 0.241,1.514 0.679,2.138 H 22.36 V 12 c 0,-0.199 -0.161,-0.36 -0.36,-0.36 H 18.36 V 4 C 18.36,3.801 18.199,3.64 18,3.64 H 14 C 13.801,3.64 13.64,3.801 13.64,4 V 7.64 H 10 C 9.801,7.64 9.64,7.801 9.64,8 v 3.64 H 6 c -0.199,0 -0.36,0.161 -0.36,0.36 v 3.642 H 1 v 0 c -0.096,0 -0.187,0.038 -0.254,0.105 -0.068,0.067 -0.105,0.159 -0.105,0.254 v 0.898 c 0,2.826 1.148,5.394 3.011,7.277 0.033,0.058 0.081,0.105 0.139,0.138 1.929,1.882 4.586,3.046 7.516,3.046 8.837,0 15.814,-5.913 16.507,-10.1 z M 10.047,23.647 C 10.237,23.59 10.346,23.39 10.29,23.2 10.234,23.01 10.034,22.899 9.842,22.958 8.417,23.381 6.343,23.628 4.132,23.64 2.416,21.889 1.36,19.513 1.36,16.9 v -0.539 l 24.34,0.003 v 0 c 0.148,0 0.282,-0.091 0.336,-0.23 0.054,-0.139 0.017,-0.296 -0.094,-0.396 -0.633,-0.574 -0.995,-1.387 -0.995,-2.231 0,-1.026 0.531,-1.981 1.4,-2.54 0.869,0.558 1.4,1.513 1.4,2.54 v 0.004 c 0,0.196 0.156,0.355 0.353,0.36 1.005,0.022 1.915,0.517 2.474,1.333 -0.57,0.83 -1.526,1.337 -2.545,1.337 h -0.531 c -0.187,0 -0.343,0.143 -0.358,0.329 -0.337,3.844 -7.287,9.771 -15.834,9.771 -2.438,0 -4.673,-0.863 -6.404,-2.294 1.987,-0.06 3.825,-0.308 5.145,-0.7 z M 18.36,12.36 h 3.279 v 3.28 H 18.36 Z m -4,0 h 3.28 v 3.28 h -3.28 z m -4,0 h 3.28 v 3.28 h -3.28 z m -4,0 h 3.28 v 3.28 H 6.36 Z m 8,-4 h 3.28 v 3.28 h -3.28 z m -4,0 h 3.28 v 3.28 h -3.28 z m 4,-4 h 3.28 v 3.28 h -3.28 z" />
      <rect
         id="_Transparent_Rectangle-3"
         style="fill:none"
         width="32"
         height="32"
         x="0"
         y="0" />
    </g>
  </g>
</svg>
