<?xml version="1.0" encoding="UTF-8" standalone="no"?>
<svg
   height="512"
   width="512"
   viewBox="-6.659355 -11.5136 24.624815 44.212224"
   version="1.1"
   id="svg113"
   sodipodi:docname="app-plex.svg"
   inkscape:version="1.2.2 (b0a8486541, 2022-12-01)"
   xml:space="preserve"
   xmlns:inkscape="http://www.inkscape.org/namespaces/inkscape"
   xmlns:sodipodi="http://sodipodi.sourceforge.net/DTD/sodipodi-0.dtd"
   xmlns:xlink="http://www.w3.org/1999/xlink"
   xmlns="http://www.w3.org/2000/svg"
   xmlns:svg="http://www.w3.org/2000/svg"
   xmlns:rdf="http://www.w3.org/1999/02/22-rdf-syntax-ns#"
   xmlns:cc="http://creativecommons.org/ns#"
   xmlns:dc="http://purl.org/dc/elements/1.1/"><metadata
     id="metadata117"><rdf:RDF><cc:Work
         rdf:about=""><dc:format>image/svg+xml</dc:format><dc:type
           rdf:resource="http://purl.org/dc/dcmitype/StillImage" /></cc:Work></rdf:RDF></metadata><sodipodi:namedview
     pagecolor="#ffffff"
     bordercolor="#666666"
     borderopacity="1"
     objecttolerance="10"
     gridtolerance="10"
     guidetolerance="10"
     inkscape:pageopacity="0"
     inkscape:pageshadow="2"
     inkscape:window-width="2560"
     inkscape:window-height="1440"
     id="namedview115"
     showgrid="false"
     inkscape:zoom="1.18"
     inkscape:cx="118.22034"
     inkscape:cy="216.94915"
     inkscape:window-x="0"
     inkscape:window-y="0"
     inkscape:window-maximized="0"
     inkscape:current-layer="svg113"
     inkscape:snap-object-midpoints="false"
     inkscape:snap-bbox="true"
     inkscape:object-paths="true"
     inkscape:pagecheckerboard="0"
     inkscape:showpageshadow="2"
     inkscape:deskcolor="#d1d1d1" /><defs
     id="defs71"><linearGradient
       id="j"><stop
         offset="0"
         id="stop2" /><stop
         offset="1"
         stop-opacity="0"
         id="stop4" /></linearGradient><linearGradient
       id="i"><stop
         offset="0"
         stop-color="#f9f9f9"
         id="stop7" /><stop
         offset="1"
         stop-color="#eeeeec"
         stop-opacity=".6204"
         id="stop9" /></linearGradient><linearGradient
       id="h"><stop
         offset="0"
         stop-color="#787b76"
         id="stop12" /><stop
         offset=".8713"
         stop-color="#babcb9"
         id="stop14" /><stop
         offset="1"
         stop-color="#787b76"
         id="stop16" /></linearGradient><linearGradient
       id="f"><stop
         offset="0"
         stop-color="#fff"
         id="stop19" /><stop
         offset="1"
         stop-color="#fff"
         stop-opacity="0"
         id="stop21" /></linearGradient><linearGradient
       id="e"><stop
         offset="0"
         stop-color="#c00"
         id="stop24" /><stop
         offset=".3651"
         stop-color="#ef0000"
         id="stop26" /><stop
         offset="1"
         stop-color="#a00"
         id="stop28" /></linearGradient><linearGradient
       id="g"><stop
         offset="0"
         stop-color="#f0f2ef"
         id="stop31" /><stop
         offset="1"
         stop-color="#cdd1c8"
         id="stop33" /></linearGradient><linearGradient
       id="d"><stop
         offset="0"
         stop-color="#888a85"
         id="stop36" /><stop
         offset="1"
         stop-color="#2e3436"
         id="stop38" /></linearGradient><linearGradient
       id="c"><stop
         offset="0"
         stop-color="#555753"
         id="stop41" /><stop
         offset="1"
         stop-color="#2e3436"
         id="stop43" /></linearGradient><linearGradient
       id="b"><stop
         offset="0"
         stop-color="#2e3436"
         id="stop46" /><stop
         offset="1"
         stop-color="#2e3436"
         stop-opacity="0"
         id="stop48" /></linearGradient><linearGradient
       id="a"><stop
         offset="0"
         stop-color="#babdb6"
         id="stop51" /><stop
         offset=".133"
         stop-color="#eeeeec"
         id="stop53" /><stop
         offset="1"
         stop-color="#babdb6"
         id="stop55" /></linearGradient><linearGradient
       gradientUnits="userSpaceOnUse"
       y2="19.4657"
       x2="23.7386"
       y1="4.1566"
       x1="23.7386"
       id="t"
       xlink:href="#a"
       gradientTransform="matrix(0.47993647,0,0,0.47993647,-5.8407319,-1.9488837)" /><linearGradient
       gradientUnits="userSpaceOnUse"
       y2="22.6325"
       x2="23.688101"
       y1="30.057199"
       x1="23.7323"
       id="u"
       xlink:href="#b"
       gradientTransform="matrix(0.47993647,0,0,0.47993647,-5.8407319,-1.9488837)" /><linearGradient
       gradientUnits="userSpaceOnUse"
       y2="36.358002"
       x2="23.9375"
       y1="30.616899"
       x1="23.9375"
       id="n"
       xlink:href="#c"
       gradientTransform="matrix(0.47993647,0,0,0.47993647,-5.8407319,-1.9488837)" /><linearGradient
       gradientUnits="userSpaceOnUse"
       y2="23.939501"
       x2="20.563101"
       y1="32.248001"
       x1="20.771099"
       id="o"
       xlink:href="#d"
       gradientTransform="matrix(0.47993647,0,0,0.47993647,-5.8407319,-1.9488837)" /><linearGradient
       gradientUnits="userSpaceOnUse"
       y2="9"
       x2="14.8125"
       y1="5.6244001"
       x1="14.8125"
       id="p"
       xlink:href="#e"
       gradientTransform="matrix(0.47993647,0,0,0.47993647,-5.8407319,-1.9488837)" /><linearGradient
       gradientUnits="userSpaceOnUse"
       y2="10.0086"
       x2="24.040501"
       y1="5.0689998"
       x1="24.040501"
       id="q"
       xlink:href="#f"
       gradientTransform="matrix(0.47993647,0,0,0.47993647,-5.8407319,-1.9488837)" /><linearGradient
       gradientUnits="userSpaceOnUse"
       y2="24"
       x2="14.125"
       y1="33.125"
       x1="13.625"
       id="m"
       xlink:href="#g"
       gradientTransform="matrix(0.47993647,0,0,0.47993647,-5.8407319,-1.9488837)" /><linearGradient
       gradientUnits="userSpaceOnUse"
       y2="42.5"
       x2="10.1875"
       y1="20.25"
       x1="10.1875"
       id="l"
       xlink:href="#h"
       gradientTransform="matrix(0.47993647,0,0,0.47993647,-5.8407319,-1.9488837)" /><linearGradient
       gradientUnits="userSpaceOnUse"
       y2="17.0709"
       x2="23.936701"
       y1="35.958698"
       x1="24.7188"
       id="r"
       xlink:href="#i"
       gradientTransform="matrix(0.47993647,0,0,0.47993647,-5.8407319,-1.9488837)" /><linearGradient
       gradientUnits="userSpaceOnUse"
       y2="21.814301"
       x2="18.3125"
       y1="20.743799"
       x1="18.3125"
       id="s"
       xlink:href="#j"
       gradientTransform="matrix(0.47993647,0,0,0.47993647,-5.8407319,-1.9488837)" /><filter
       height="1.2799"
       y="-0.14"
       width="1.0595"
       x="-0.0298"
       id="k"><feGaussianBlur
         stdDeviation=".5197"
         id="feGaussianBlur68" /></filter><filter
       id="k-3"
       x="-0.0298"
       width="1.0595"
       y="-0.14"
       height="1.2799"><feGaussianBlur
         id="feGaussianBlur68-7"
         stdDeviation=".5197" /></filter><filter
       style="color-interpolation-filters:sRGB"
       inkscape:label="Drop Shadow"
       id="filter4682"
       x="-0.036552633"
       y="-0.04191637"
       width="1.0731053"
       height="1.0862779"><feFlood
         flood-opacity="0.498039"
         flood-color="rgb(0,0,0)"
         result="flood"
         id="feFlood4684" /><feComposite
         in="flood"
         in2="SourceGraphic"
         operator="in"
         result="composite1"
         id="feComposite4686" /><feGaussianBlur
         in="composite1"
         stdDeviation="5"
         result="blur"
         id="feGaussianBlur4688" /><feOffset
         dx="1.34615e-014"
         dy="0.7"
         result="offset"
         id="feOffset4690" /><feComposite
         in="SourceGraphic"
         in2="offset"
         operator="over"
         result="composite2"
         id="feComposite4692" /></filter></defs><g
     id="g944"
     transform="matrix(0.04103249,0,0,0.04216406,-4.8512649,-0.20148736)" /><g
     id="g946"
     transform="matrix(0.04103249,0,0,0.04216406,-4.8512649,-0.20148736)" /><g
     id="g948"
     transform="matrix(0.04103249,0,0,0.04216406,-4.8512649,-0.20148736)" /><g
     id="g950"
     transform="matrix(0.04103249,0,0,0.04216406,-4.8512649,-0.20148736)" /><g
     id="g952"
     transform="matrix(0.04103249,0,0,0.04216406,-4.8512649,-0.20148736)" /><g
     id="g954"
     transform="matrix(0.04103249,0,0,0.04216406,-4.8512649,-0.20148736)" /><g
     id="g956"
     transform="matrix(0.04103249,0,0,0.04216406,-4.8512649,-0.20148736)" /><g
     id="g958"
     transform="matrix(0.04103249,0,0,0.04216406,-4.8512649,-0.20148736)" /><g
     id="g960"
     transform="matrix(0.04103249,0,0,0.04216406,-4.8512649,-0.20148736)" /><g
     id="g962"
     transform="matrix(0.04103249,0,0,0.04216406,-4.8512649,-0.20148736)" /><g
     id="g964"
     transform="matrix(0.04103249,0,0,0.04216406,-4.8512649,-0.20148736)" /><g
     id="g966"
     transform="matrix(0.04103249,0,0,0.04216406,-4.8512649,-0.20148736)" /><g
     id="g968"
     transform="matrix(0.04103249,0,0,0.04216406,-4.8512649,-0.20148736)" /><g
     id="g970"
     transform="matrix(0.04103249,0,0,0.04216406,-4.8512649,-0.20148736)" /><g
     id="g972"
     transform="matrix(0.04103249,0,0,0.04216406,-4.8512649,-0.20148736)" /><style
     type="text/css"
     id="style2">
	.st0{fill:#FFFFFF;}
	.st1{fill:#EBAF00;}
</style><g
     id="g428"
     transform="matrix(0.021588,0,0,0.021588,-5.1409476,5.6175873)"><path
       class="st0"
       d="m 164.18919,82.43243 c -39.86487,0 -65.540543,11.48648 -87.162163,38.51351 V 91.21621 H 0 v 366.21621 c 0,0 1.3513514,0.67567 5.4054053,1.35135 5.4054057,1.35135 33.7837827,7.43243 54.7297287,-10.13514 18.243244,-15.54054 22.297295,-33.78378 22.297295,-54.05405 v -52.7027 c 22.297301,23.64864 47.297301,33.78378 82.432431,33.78378 75.67567,0 133.78378,-61.48648 133.78378,-143.24323 0,-88.51352 -56.08108,-150 -134.45945,-150 z m -14.86487,223.64864 c -42.56756,0 -76.351351,-35.13513 -76.351351,-77.7027 0,-41.89189 39.864871,-75.67567 76.351351,-75.67567 43.24324,0 76.35135,33.1081 76.35135,76.35135 0,43.24324 -33.78378,77.02702 -76.35135,77.02702 z"
       id="path4"
       inkscape:connector-curvature="0"
       style="fill:#000000;stroke-width:6.75676" /><path
       class="st0"
       d="m 408.1081,223.64864 c 0,31.75676 3.37838,70.27027 34.45946,112.16216 0.67567,0.67567 2.02702,2.7027 2.02702,2.7027 -12.83783,21.62162 -28.37837,36.48648 -49.32432,36.48648 -16.21622,0 -32.43243,-8.78378 -45.94595,-23.64864 -14.18918,-16.21622 -20.94594,-37.16216 -20.94594,-59.45946 V 0 h 79.05405 z"
       id="path6"
       inkscape:connector-curvature="0"
       style="fill:#000000;stroke-width:6.75676" /><polygon
       class="st1"
       points="117.9,33.9 104.1,13.5 118.3,13.5 132,33.9 118.3,54.2 104.1,54.2 "
       id="polygon8"
       style="fill:#ebaf00"
       transform="scale(6.7567568)" /><polygon
       class="st0"
       points="133.8,13.5 128.7,21 135.7,31.6 148,13.5 "
       id="polygon10"
       style="fill:#000000"
       transform="scale(6.7567568)" /><path
       class="st0"
       d="m 869.59458,316.2162 c 0,0 16.2162,22.2973 16.2162,22.2973 15.54058,24.32432 35.8108,36.48648 59.45949,36.48648 25,-0.67567 42.56752,-22.29729 49.3243,-30.4054 0,0 -12.16218,-10.81081 -27.7027,-29.05405 -20.94598,-24.32432 -48.64868,-68.91892 -49.3243,-70.94594 z"
       id="path12"
       inkscape:connector-curvature="0"
       style="fill:#000000;stroke-width:6.75676" /><path
       style="fill:#000000;stroke-width:6.75676"
       inkscape:connector-curvature="0"
       id="path16"
       d="m 632.43242,287.16215 c -16.21622,14.86486 -27.02703,22.97297 -49.32432,22.97297 -39.86487,0 -62.83784,-28.37837 -66.21622,-59.45945 h 211.4865 c 1.35131,-4.05406 2.027,-9.45946 2.027,-18.24324 0,-85.81082 -62.83783,-150 -145.27026,-150 -78.37837,0 -142.56756,65.54054 -142.56756,147.29729 0,81.08108 64.18919,145.27026 144.59459,145.27026 56.08108,0 104.72973,-31.75675 131.08105,-87.83783 z M 585.8108,147.29729 c 35.13513,0 61.48648,22.97297 67.56756,53.37838 H 519.59458 c 6.75676,-31.75676 31.75676,-53.37838 66.21622,-53.37838 z"
       class="st0" /></g></svg>
