<?xml version="1.0" encoding="UTF-8" standalone="no"?>
<svg
   xmlns:dc="http://purl.org/dc/elements/1.1/"
   xmlns:cc="http://creativecommons.org/ns#"
   xmlns:rdf="http://www.w3.org/1999/02/22-rdf-syntax-ns#"
   xmlns:svg="http://www.w3.org/2000/svg"
   xmlns="http://www.w3.org/2000/svg"
   xmlns:sodipodi="http://sodipodi.sourceforge.net/DTD/sodipodi-0.dtd"
   xmlns:inkscape="http://www.inkscape.org/namespaces/inkscape"
   width="512"
   height="512"
   version="1"
   id="svg20"
   sodipodi:docname="app-nextcloud.svg"
   inkscape:version="0.92.3 (2405546, 2018-03-11)">
  <metadata
     id="metadata26">
    <rdf:RDF>
      <cc:Work
         rdf:about="">
        <dc:format>image/svg+xml</dc:format>
        <dc:type
           rdf:resource="http://purl.org/dc/dcmitype/StillImage" />
        <dc:title />
      </cc:Work>
    </rdf:RDF>
  </metadata>
  <defs
     id="defs24" />
  <sodipodi:namedview
     pagecolor="#ffffff"
     bordercolor="#666666"
     borderopacity="1"
     objecttolerance="10"
     gridtolerance="10"
     guidetolerance="10"
     inkscape:pageopacity="0"
     inkscape:pageshadow="2"
     inkscape:window-width="1265"
     inkscape:window-height="1396"
     id="namedview22"
     showgrid="false"
     inkscape:zoom="0.23046875"
     inkscape:cx="-531.78527"
     inkscape:cy="-902.64132"
     inkscape:window-x="1285"
     inkscape:window-y="34"
     inkscape:window-maximized="0"
     inkscape:current-layer="svg20" />
  <g
     id="g832"
     transform="matrix(1.2084961,0,0,1.2084961,-58.062498,-49.625008)"
     style="fill:#ffffff">
    <path
       inkscape:connector-curvature="0"
       id="path8"
       d="m 259.87879,203.24849 a 49.648485,49.648485 0 0 0 -49.64849,49.64848 49.648485,49.648485 0 0 0 49.64849,49.64849 49.648485,49.648485 0 0 0 49.64848,-49.64849 49.648485,49.648485 0 0 0 -49.64848,-49.64848 z m 0,24.82424 a 24.824242,24.824242 0 0 1 24.82424,24.82424 24.824242,24.824242 0 0 1 -24.82424,24.82425 24.824242,24.824242 0 0 1 -24.82425,-24.82425 24.824242,24.824242 0 0 1 24.82425,-24.82424 z"
       style="fill:#ffffff;stroke-width:1" />
    <path
       inkscape:connector-curvature="0"
       id="path12"
       d="m 172.99394,215.66061 a 37.236364,37.236364 0 0 0 -37.23637,37.23636 37.236364,37.236364 0 0 0 37.23637,37.23637 37.236364,37.236364 0 0 0 37.23636,-37.23637 37.236364,37.236364 0 0 0 -37.23636,-37.23636 z m 0,24.82424 a 12.412121,12.412121 0 0 1 12.41212,12.41212 12.412121,12.412121 0 0 1 -12.41212,12.41212 12.412121,12.412121 0 0 1 -12.41212,-12.41212 12.412121,12.412121 0 0 1 12.41212,-12.41212 z"
       style="fill:#ffffff;stroke-width:1" />
    <path
       inkscape:connector-curvature="0"
       id="path16"
       d="m 346.76363,215.66061 a 37.236364,37.236364 0 0 0 -37.23636,37.23636 37.236364,37.236364 0 0 0 37.23636,37.23637 A 37.236364,37.236364 0 0 0 384,252.89697 37.236364,37.236364 0 0 0 346.76363,215.66061 Z m 0,24.82424 a 12.412121,12.412121 0 0 1 12.41213,12.41212 12.412121,12.412121 0 0 1 -12.41213,12.41212 12.412121,12.412121 0 0 1 -12.41212,-12.41212 12.412121,12.412121 0 0 1 12.41212,-12.41212 z"
       style="fill:#ffffff;stroke-width:1" />
  </g>
</svg>
